<?xml version="1.0" standalone="no"?>
<!DOCTYPE svg PUBLIC "-//W3C//DTD SVG 20010904//EN"
 "http://www.w3.org/TR/2001/REC-SVG-20010904/DTD/svg10.dtd">
<svg version="1.0" xmlns="http://www.w3.org/2000/svg"
 width="211.000000pt" height="214.000000pt" viewBox="0 0 211.000000 214.000000"
 preserveAspectRatio="xMidYMid meet">

<g transform="translate(0.000000,214.000000) scale(0.100000,-0.100000)"
fill="#000000" stroke="none">
<path d="M1145 1958 c-8 -27 -44 -173 -42 -174 1 -1 11 -4 21 -6 16 -2 23 7
36 51 l15 54 14 -51 c7 -29 16 -52 19 -52 4 0 21 17 39 37 l32 38 -6 -57 c-5
-53 -4 -58 14 -58 23 0 28 17 39 125 6 62 6 65 -15 65 -12 0 -35 -15 -52 -35
-36 -40 -46 -38 -55 11 -9 50 -48 84 -59 52z"/>
<path d="M799 1911 c-66 -66 -20 -171 74 -171 38 0 49 5 71 31 59 69 15 169
-74 169 -33 0 -48 -6 -71 -29z m101 -21 c26 -14 34 -57 15 -86 -36 -55 -120
-4 -96 59 14 35 46 46 81 27z"/>
<path d="M651 1861 c-11 -7 -8 -16 13 -47 14 -21 26 -42 26 -46 0 -5 -22 3
-50 17 -56 28 -73 31 -88 12 -8 -9 2 -33 38 -90 28 -42 54 -77 60 -77 21 0 21
30 1 63 -12 19 -21 37 -21 41 0 3 25 -6 57 -19 31 -14 64 -23 75 -19 19 6 24
29 9 38 -5 3 -26 35 -47 71 -38 65 -47 72 -73 56z"/>
<path d="M1411 1792 c-67 -61 -72 -69 -57 -81 15 -12 19 -12 33 2 15 15 19 15
45 -1 17 -10 28 -25 28 -39 0 -12 9 -27 19 -32 22 -12 23 -9 41 113 11 73 10
81 -6 93 -10 7 -20 13 -23 13 -3 0 -39 -30 -80 -68z m69 -14 c0 -22 -17 -41
-30 -33 -8 5 -7 12 6 26 20 22 24 23 24 7z"/>
<path d="M1581 1676 c-58 -59 -70 -86 -37 -86 7 0 25 14 41 30 16 17 32 30 36
30 4 0 0 -27 -9 -61 -13 -55 -13 -62 1 -77 15 -14 21 -11 79 44 35 32 64 64
66 71 7 26 -22 23 -60 -8 -40 -31 -41 -32 -35 -8 17 70 19 100 7 114 -7 8 -15
15 -19 15 -4 0 -35 -29 -70 -64z"/>
<path d="M420 1676 c-5 -5 -10 -16 -10 -23 0 -11 71 -153 86 -172 9 -11 31 22
27 42 -5 27 21 54 57 59 14 1 26 10 27 18 4 20 -171 92 -187 76z m80 -66 c11
-7 12 -12 3 -21 -8 -8 -14 -6 -22 10 -12 22 -5 27 19 11z"/>
<path d="M1120 1635 c-19 -8 -93 -36 -165 -62 -129 -48 -130 -49 -151 -93 -40
-83 -59 -169 -46 -214 8 -32 8 -44 -3 -56 -18 -20 -85 -160 -86 -180 -1 -17
-18 32 -49 138 l-21 72 -48 0 c-47 0 -90 -10 -141 -33 -46 -20 -130 -87 -130
-103 0 -9 23 -90 52 -181 42 -135 49 -169 40 -184 -18 -28 -14 -68 9 -100 11
-16 36 -88 56 -160 44 -169 71 -228 127 -282 94 -92 232 -127 500 -128 343 -1
497 55 576 211 11 22 38 106 60 185 21 80 48 158 59 174 25 34 27 83 6 105
-14 13 -13 25 6 108 27 120 22 202 -21 323 -63 180 -160 330 -244 379 -44 26
-228 79 -311 90 -23 3 -55 -1 -75 -9z m130 -35 c30 -6 96 -23 145 -38 81 -24
95 -31 145 -82 70 -71 134 -183 182 -324 45 -133 47 -174 13 -315 -26 -107
-51 -168 -41 -101 30 204 30 200 7 228 -44 55 -46 66 -17 118 14 25 26 52 26
58 0 15 -144 51 -190 49 -8 -1 -22 16 -31 37 -16 36 -16 39 4 59 17 16 19 23
9 33 -10 10 -18 7 -38 -15 -48 -52 -78 -61 -214 -63 -91 -1 -137 -6 -170 -18
-111 -42 -160 -36 -146 19 8 33 56 61 126 76 62 13 159 58 181 85 13 16 12 17
-16 11 -27 -5 -33 -1 -49 26 -17 30 -19 31 -32 13 -10 -15 -21 -17 -49 -13
-31 5 -168 -21 -194 -38 -5 -3 -14 -27 -21 -54 -9 -39 -19 -53 -51 -74 l-39
-26 -6 25 c-12 46 43 208 76 225 44 23 306 116 319 113 9 -2 41 -8 71 -14z
m-194 -229 c-10 -19 -24 -31 -36 -31 -35 0 -19 60 20 73 26 8 32 -9 16 -42z
m104 24 c0 -6 -16 -16 -35 -22 -35 -11 -40 -8 -30 20 7 16 65 19 65 2z m-190
-14 c0 -31 -21 -61 -44 -61 -20 0 -23 4 -19 23 6 24 30 47 50 47 7 0 13 -4 13
-9z m-60 -111 c0 -5 -6 -14 -12 -19 -87 -68 -144 -155 -174 -264 -21 -76 -29
-87 -37 -47 -11 51 58 213 116 273 23 24 86 67 100 67 4 0 7 -4 7 -10z m564
-90 c29 -64 31 -118 6 -130 -68 -31 -74 -37 -88 -80 l-15 -45 -29 92 c-15 50
-43 114 -62 142 l-35 51 52 1 c29 0 68 6 87 13 54 21 56 20 84 -44z m-910 34
c51 -19 -105 -114 -201 -122 -62 -5 -68 6 -20 41 45 35 88 55 149 71 29 8 54
15 55 15 1 1 8 -2 17 -5z m675 -50 c65 -74 121 -259 102 -339 -7 -32 -9 -35
-10 -13 -2 55 -60 257 -85 297 -15 23 -45 55 -68 71 l-41 30 31 0 c24 0 39
-10 71 -46z m-329 26 c0 -24 54 -32 110 -16 62 18 89 13 143 -22 42 -28 92
-120 103 -188 l6 -42 -32 7 c-29 6 -34 12 -45 53 -15 58 -53 110 -98 132 -50
23 -77 20 -130 -14 -47 -30 -73 -70 -91 -142 -6 -25 -11 -28 -45 -28 -22 0
-44 -6 -51 -15 -10 -12 -22 -82 -30 -175 -1 -8 -8 6 -15 32 -29 106 46 340
131 407 29 23 44 27 44 11z m-334 -104 c-28 -48 -31 -56 -18 -56 5 0 17 15 27
34 11 19 23 33 27 30 13 -8 9 -40 -12 -90 -11 -26 -19 -52 -16 -58 2 -6 12 8
22 32 9 23 20 42 24 42 19 0 15 -53 -7 -105 -30 -71 -24 -98 7 -30 21 48 23
49 33 26 9 -19 7 -36 -11 -84 -26 -72 -22 -86 8 -27 12 23 24 40 26 37 13 -12
5 -66 -15 -104 -22 -45 -26 -63 -13 -63 5 0 17 21 29 48 20 47 20 47 28 19 8
-29 -19 -107 -36 -107 -4 0 -25 12 -46 26 -34 23 -39 24 -49 9 -10 -14 -19
-15 -51 -6 -47 13 -102 46 -110 66 -9 26 2 27 41 4 59 -34 53 -15 -7 25 -47
32 -76 70 -62 84 2 3 21 -5 41 -17 20 -12 39 -20 41 -17 6 5 -76 66 -89 66 -9
0 -31 50 -24 57 2 2 22 -5 45 -17 59 -29 51 -7 -8 26 -33 17 -53 36 -60 55 -9
27 -9 27 20 17 47 -16 45 -2 -3 24 l-43 22 40 6 c41 6 85 -6 85 -22 0 -5 -7
-23 -16 -39 -8 -17 -13 -36 -11 -42 2 -7 16 12 31 42 27 53 25 69 -9 71 -5 1
3 8 18 16 26 14 31 14 54 -1 13 -9 28 -14 31 -10 4 4 -2 11 -12 17 -17 10 -16
13 20 44 36 30 40 31 48 14 6 -14 1 -31 -18 -64z m1092 49 c2 -1 -7 -21 -18
-44 -17 -31 -20 -50 -15 -80 7 -44 -10 -65 -30 -38 -16 22 -27 10 -14 -14 8
-15 4 -21 -20 -34 -29 -14 -30 -14 -51 12 -19 24 -20 29 -6 39 21 15 20 26 -1
23 -36 -3 -37 2 -10 24 23 18 29 32 34 78 l5 55 62 -9 c33 -5 62 -10 64 -12z
m-569 -59 c16 -12 45 -75 55 -118 5 -20 3 -28 -8 -28 -8 0 -16 15 -20 40 -12
76 -42 110 -97 110 -32 0 -77 -52 -90 -104 -11 -46 -29 -62 -29 -27 0 99 121
181 189 127z m-26 -44 c9 -10 19 -37 23 -60 l7 -42 -67 0 c-72 0 -78 7 -57 63
21 54 64 72 94 39z m392 -43 c7 -10 -21 -38 -37 -39 -12 0 -9 25 4 38 15 15
25 15 33 1z m215 -44 c7 -9 10 -25 5 -42 l-6 -26 -25 27 c-21 22 -23 30 -14
41 16 19 24 19 40 0z m-175 -24 c14 -28 14 -31 -7 -45 -31 -22 -41 -20 -61 13
-16 28 -16 29 6 44 32 23 45 21 62 -12z m128 -24 c17 -26 13 -38 -19 -55 -19
-10 -24 -8 -38 13 -20 31 -20 35 2 51 25 19 38 17 55 -9z m-193 -58 c0 -5 -45
-29 -55 -29 -9 0 -5 37 6 70 l12 33 18 -34 c10 -19 18 -37 19 -40z m-570 31
c0 -28 -2 -30 -40 -30 -28 0 -40 4 -40 14 0 33 13 46 46 46 31 0 34 -3 34 -30z
m112 0 c-4 -27 -8 -30 -43 -30 -37 0 -39 2 -39 30 0 29 2 30 43 30 43 0 43 -1
39 -30z m108 0 c0 -28 -2 -30 -40 -30 -38 0 -40 2 -40 30 0 28 2 30 40 30 38
0 40 -2 40 -30z m120 26 c0 -3 -4 -16 -10 -30 -8 -21 -16 -26 -45 -26 -32 0
-35 2 -35 30 0 29 2 30 45 30 25 0 45 -2 45 -4z m39 -168 c1 -104 0 -108 -20
-108 -21 0 -21 3 -15 83 4 45 9 102 13 127 10 73 21 20 22 -102z m61 -2 c6
-54 8 -101 6 -104 -3 -2 -12 -2 -21 1 -12 5 -15 27 -14 129 1 140 11 130 29
-26z m247 118 c16 -25 16 -27 -8 -45 -31 -24 -35 -24 -56 7 -16 25 -16 27 8
45 31 24 35 24 56 -7z m119 -22 c-2 -10 -7 -29 -10 -44 -8 -35 -19 -35 -41 -1
-18 26 -17 27 9 50 29 25 50 22 42 -5z m-201 -29 c18 -26 17 -27 -11 -50 l-29
-23 -17 23 c-23 29 -22 43 4 61 30 21 33 20 53 -11z m-617 -20 c-3 -36 -5 -38
-37 -36 -42 2 -42 3 -35 41 6 29 10 32 41 32 33 0 34 -1 31 -37z m115 5 c-7
-39 -13 -44 -50 -43 -25 2 -28 6 -31 38 l-3 37 45 0 46 0 -7 -32z m112 0 c-10
-44 -9 -44 -47 -43 -31 0 -33 2 -36 38 l-3 37 46 0 47 0 -7 -32z m105 -3 c0
-19 -3 -35 -7 -36 -61 -9 -73 -6 -73 16 0 43 10 55 46 55 32 0 34 -2 34 -35z
m416 -10 c16 -24 15 -26 -7 -45 -30 -25 -30 -25 -53 7 -19 26 -19 26 3 45 30
24 37 23 57 -7z m-206 -70 c-30 -36 -54 7 -34 60 6 14 10 11 27 -14 15 -25 17
-34 7 -46z m116 37 c6 -4 16 -16 22 -28 9 -18 7 -24 -18 -42 -16 -12 -32 -22
-34 -22 -3 0 -13 14 -22 32 -16 30 -15 32 7 49 27 21 30 22 45 11z m-1056 -76
c188 -102 1059 -99 1227 5 18 11 40 30 49 42 15 22 15 22 12 -8 -11 -102 -345
-167 -788 -152 -365 13 -572 70 -569 156 0 25 1 25 11 5 5 -12 32 -34 58 -48z
m1179 22 c-23 -19 -50 -21 -56 -3 -2 6 9 18 24 27 21 13 31 14 41 5 12 -9 10
-14 -9 -29z m-786 23 c4 0 7 -19 7 -42 l0 -40 -37 3 c-35 3 -38 6 -41 37 -4
44 10 53 71 42z m111 -38 c-8 -49 -17 -57 -48 -49 -23 6 -26 12 -26 46 l0 40
40 0 41 0 -7 -37z m116 -3 c0 -34 -4 -41 -24 -46 -54 -13 -75 8 -62 62 5 20
12 24 46 24 40 0 40 0 40 -40z m100 -5 c0 -45 0 -45 -34 -45 -42 0 -49 9 -40
55 6 32 9 35 40 35 34 0 34 -1 34 -45z m280 -14 c0 -12 -68 -12 -76 0 -4 7 3
20 17 31 23 20 24 20 41 -2 10 -12 18 -25 18 -29z m-720 4 c0 -17 -4 -23 -15
-19 -11 5 -12 11 -4 25 13 26 19 24 19 -6z m-237 -81 c39 -13 47 -20 47 -41 0
-21 -3 -23 -22 -17 -49 14 -78 35 -78 54 0 24 -4 24 53 4z m1185 -6 c-2 -14
-16 -29 -38 -40 -47 -23 -50 -22 -50 7 0 19 8 29 33 39 47 21 59 19 55 -6z
m-998 -33 c47 -8 86 -15 88 -15 1 0 2 -14 2 -30 0 -30 0 -31 -45 -24 -25 3
-67 11 -93 17 -40 10 -47 16 -50 40 -4 32 -10 31 98 12z m870 -9 c0 -32 -10
-37 -95 -52 -103 -19 -105 -19 -105 15 0 28 3 30 48 36 26 4 63 11 82 15 61
14 70 12 70 -14z m-587 -16 l78 0 -3 -32 c-3 -28 -7 -33 -28 -32 -14 1 -59 3
-100 4 -95 4 -100 6 -100 42 0 30 1 30 38 24 20 -3 72 -6 115 -6z m347 -19 c0
-37 -8 -39 -130 -43 l-95 -3 -3 32 -3 32 108 4 c59 1 111 4 116 5 4 1 7 -11 7
-27z m-810 -21 c23 -23 26 -50 6 -50 -16 0 -31 17 -40 48 -9 28 7 29 34 2z
m1153 -11 c-3 -16 -15 -31 -30 -38 -22 -10 -25 -9 -19 4 3 9 6 23 6 31 0 8 10
18 23 23 27 11 26 12 20 -20z m-1035 -19 c30 -8 41 -16 46 -36 4 -15 6 -28 4
-29 -4 -3 -97 20 -102 26 -3 2 -8 17 -12 33 -6 24 -4 28 9 23 9 -3 34 -11 55
-17z m940 -35 c-7 -7 -34 -17 -60 -23 l-48 -10 7 27 c3 14 6 27 7 27 1 1 24 8
51 16 47 13 50 13 53 -5 2 -11 -2 -25 -10 -32z m-658 -32 l0 -34 -42 5 c-24 4
-65 8 -92 11 -28 3 -51 7 -53 8 -1 2 -5 17 -9 33 l-6 29 101 -9 101 -9 0 -34z
m515 19 c-7 -32 -19 -36 -147 -47 -61 -6 -64 -3 -52 41 5 19 16 22 102 30 53
5 99 8 100 7 2 -1 1 -15 -3 -31z m-239 -15 c-3 -12 -5 -25 -5 -29 -1 -5 -53
-8 -116 -8 l-115 0 0 33 0 32 120 -3 c117 -3 120 -4 116 -25z m-624 -19 c22
-8 47 -52 36 -63 -2 -2 -20 4 -40 12 -25 10 -40 24 -47 45 -9 27 -9 29 7 23 9
-4 29 -11 44 -17z m1073 0 c-10 -31 -14 -34 -59 -53 -36 -15 -38 -15 -32 0 3
9 6 22 6 29 0 8 17 20 38 29 51 21 54 20 47 -5z m-833 -80 c5 -33 1 -33 -88
-17 -59 10 -84 28 -84 59 0 15 7 15 84 2 81 -15 84 -16 88 -44z m704 27 c-8
-30 -30 -40 -109 -50 l-57 -7 0 29 c0 30 1 30 83 44 45 8 84 14 86 12 2 -1 0
-14 -3 -28z m-473 -15 c12 0 17 -8 17 -31 l0 -32 -67 6 c-38 4 -85 7 -105 7
-36 0 -38 2 -38 31 l0 31 88 -6 c48 -3 95 -5 105 -6z m267 -18 c0 -29 0 -29
-77 -36 -131 -11 -133 -10 -133 23 0 33 0 33 148 39 l62 2 0 -28z m-647 -39
c53 -14 57 -17 57 -45 0 -26 -3 -29 -22 -22 -33 10 -90 48 -113 74 l-20 23 20
-8 c11 -4 46 -14 78 -22z m897 -7 c-23 -23 -120 -80 -125 -74 -2 2 -1 17 2 34
4 27 10 32 61 46 83 22 90 22 62 -6z m-687 -31 l57 -6 0 -36 0 -36 -52 7
c-118 15 -118 15 -118 52 0 32 2 34 28 30 15 -2 53 -7 85 -11z m527 -7 c0 -38
-13 -46 -80 -57 -91 -15 -90 -15 -90 23 l0 34 78 9 c42 6 80 11 85 12 4 0 7
-9 7 -21z m-210 -25 c0 -16 -4 -33 -8 -39 -8 -11 -127 -17 -179 -8 -30 4 -33
8 -33 39 l0 35 110 0 110 0 0 -27z"/>
<path d="M431 1162 c-41 -20 -77 -43 -79 -49 -5 -19 16 -16 46 6 15 10 55 29
90 42 34 13 62 27 62 31 0 18 -50 5 -119 -30z"/>
<path d="M480 988 c-10 -23 -16 -47 -12 -53 3 -5 13 7 21 28 12 33 18 38 38
32 31 -7 29 9 -2 23 -25 11 -27 10 -45 -30z"/>
<path d="M494 905 c-20 -55 -11 -74 11 -22 17 41 18 41 46 26 38 -20 42 -3 5
19 -20 12 -39 22 -41 22 -2 0 -11 -20 -21 -45z"/>
<path d="M525 824 c-8 -20 -15 -43 -15 -51 0 -24 18 -4 25 28 6 26 10 30 28
24 56 -17 60 -15 25 9 -20 14 -39 26 -42 26 -3 0 -13 -16 -21 -36z"/>
<path d="M544 725 c-20 -54 -12 -73 10 -21 14 35 38 47 51 26 7 -12 35 -13 35
-2 0 7 -62 42 -75 42 -2 0 -11 -20 -21 -45z"/>
<path d="M1720 1524 c-39 -26 -50 -45 -50 -87 0 -50 43 -97 90 -97 95 0 145
106 81 171 -34 34 -82 39 -121 13z m90 -44 c26 -26 25 -46 -5 -75 -29 -30 -49
-31 -75 -5 -27 27 -25 55 6 79 33 26 49 26 74 1z"/>
<path d="M305 1501 c-4 -14 2 -32 20 -55 29 -38 22 -46 -40 -46 -40 0 -56 -27
-28 -48 36 -27 153 -81 155 -72 0 6 1 15 2 20 1 6 -17 21 -39 35 l-40 24 41 1
c22 0 44 3 47 7 4 3 -4 21 -18 39 -14 18 -25 35 -25 38 0 3 20 -3 45 -12 40
-15 47 -15 55 -2 5 8 10 17 10 20 0 3 -35 18 -77 34 -43 16 -83 31 -90 33 -6
3 -14 -5 -18 -16z"/>
</g>
</svg>
