<?xml version="1.0" encoding="UTF-8"?>
<svg version="1.1" xmlns="http://www.w3.org/2000/svg" width="500" height="500">
<path d="M0 0 C165 0 330 0 500 0 C500 165 500 330 500 500 C335 500 170 500 0 500 C0 335 0 170 0 0 Z " fill="#45351A" transform="translate(0,0)"/>
<path d="M0 0 C165 0 330 0 500 0 C500 165 500 330 500 500 C335 500 170 500 0 500 C0 335 0 170 0 0 Z M202 10 C200.81760742 10.25620117 200.81760742 10.25620117 199.61132812 10.51757812 C190.88156515 12.42184635 182.42303566 15.03367469 174 18 C172.92621094 18.34546875 171.85242188 18.6909375 170.74609375 19.046875 C161.56673083 22.09621968 153.33668017 26.28280212 144.89355469 30.95703125 C143.28492822 31.84306171 141.66328348 32.70539131 140.0390625 33.5625 C126.09713013 40.931209 113.59623916 49.51435881 101.57226562 59.70263672 C100.27359314 60.77424317 98.91652667 61.77464893 97.546875 62.75390625 C97.03640625 63.16511719 96.5259375 63.57632813 96 64 C96 64.66 96 65.32 96 66 C95.44828125 66.226875 94.8965625 66.45375 94.328125 66.6875 C91.31307583 68.38725926 89.18769631 70.54804816 86.75 73 C85.41195312 74.3303125 85.41195312 74.3303125 84.046875 75.6875 C81.77906927 77.73489103 81.77906927 77.73489103 82 80 C81.01 80.33 80.02 80.66 79 81 C73.28902375 86.91710491 68.56663698 93.87000649 63.8125 100.5625 C63.32595947 101.24570313 62.83941895 101.92890625 62.33813477 102.6328125 C43.69804269 129.21377924 30.55249966 159.84127948 24.43798828 191.72070312 C24.15154601 193.21135255 23.85349837 194.69983063 23.54248047 196.18554688 C15.28626859 236.40674736 20.78721717 281.19114516 36 319 C36.57423855 320.52847868 37.14486013 322.05832379 37.7109375 323.58984375 C47.17860198 348.60143499 62.23485201 371.1728259 80 391 C81.12561816 392.35365288 82.25071651 393.7077384 83.375 395.0625 C86.70423554 398.84274036 90.33972589 402.29488105 94 405.75 C94.58185059 406.3056665 95.16370117 406.86133301 95.76318359 407.43383789 C98.6300112 410.09635265 101.17325333 412.16700984 104.72265625 413.8359375 C109.23609084 416.81620301 109.93447834 419.84975077 111.4375 424.875 C118.93139538 447.14293764 132.21680396 462.66845113 152.875 473.75 C181.62757526 487.24230878 215.23340819 488.72128004 246.50317383 488.52148438 C250.08565766 488.49876099 253.66694696 488.51223657 257.24938965 488.53526306 C283.14625388 488.675574 310.04562848 487.45966978 335 480 C335.95261719 479.71640625 336.90523438 479.4328125 337.88671875 479.140625 C350.33452781 474.99741264 362.30821038 468.88113807 372 460 C372.63164062 459.43667969 373.26328125 458.87335938 373.9140625 458.29296875 C384.95961597 447.90430943 392.27948883 433.56723219 396 419 C397 416 397 416 398.859375 415.01171875 C399.56578125 414.67785156 400.2721875 414.34398437 401 414 C402.67826272 412.52556263 402.67826272 412.52556263 404.25 410.8125 C406.61373979 408.36897153 409.01134416 406.11003249 411.625 403.9375 C455.48181816 365.94525636 479.13714097 307.24048465 483.75683594 250.5234375 C485.70668685 222.27017604 482.13635689 195.06778442 474 168 C473.73203613 167.1023291 473.46407227 166.2046582 473.18798828 165.27978516 C463.68648653 134.23438867 447.1708575 105.62593968 425 82 C423.84784026 80.67212962 422.70148576 79.33918753 421.5625 78 C402.31099073 55.95318961 378.08551104 39.53126146 351.86987305 26.91772461 C350.63242946 26.31039331 349.40427249 25.68372781 348.18676758 25.03735352 C331.21590311 16.10613064 311.58835953 11.64545252 292.8046875 8.48730469 C291.01649298 8.17661212 289.23367524 7.83170329 287.4609375 7.44238281 C276.4248275 5.18279971 265.08780896 5.60652242 253.875 5.625 C252.19908783 5.62481873 252.19908783 5.62481873 250.48931885 5.62463379 C233.98823228 5.65011626 218.14166426 6.28291556 202 10 Z " fill="#FDEFD1" transform="translate(0,0)"/>
<path d="M0 0 C1.76529271 0.41288164 3.53090631 0.82439429 5.296875 1.234375 C19.66364906 4.6904401 33.51756367 9.37701 46.62109375 16.234375 C48.84031403 17.3940138 51.08276641 18.51042897 53.34765625 19.578125 C74.23871686 29.46000442 92.40817371 44.08470078 109 60 C109.82371094 60.78246094 110.64742188 61.56492187 111.49609375 62.37109375 C116.36860707 67.10849404 120.70590958 72.14715637 124.94921875 77.453125 C126.58496665 79.4845681 128.25810464 81.43636163 130 83.375 C151.65427736 108.65815351 164.61353033 141.59570525 172.17578125 173.58984375 C172.71043885 175.80195789 173.3164126 177.99848489 174.00390625 180.16796875 C185.98672666 226.26658375 177.03102416 283.30837834 155 325 C154.33616124 326.34259898 153.67747768 327.68775677 153.0234375 329.03515625 C147.11326544 341.19751758 140.14124494 352.18831125 132 363 C131.61392578 363.51900879 131.22785156 364.03801758 130.83007812 364.57275391 C106.35185396 397.34420042 106.35185396 397.34420042 92.796875 404.09765625 C90.81682679 404.86750558 90.81682679 404.86750558 90 407 C90.68332063 400.71870654 92.36178951 394.86841323 94.125 388.8125 C97.23463206 377.98240213 100.02170928 367.0964736 102.60205078 356.12817383 C102.87259277 355.00822021 103.14313477 353.8882666 103.421875 352.734375 C103.65487305 351.74663086 103.88787109 350.75888672 104.12792969 349.74121094 C105.49579535 345.44154811 107.61001264 342.44705868 110.5625 339.0625 C114.34351879 334.31198921 115.42462676 329.91696142 115.25390625 323.953125 C114.70678157 319.74447361 112.96922061 316.80768384 109.75 314.125 C108 312 108 312 108.2109375 308.609375 C109.05123699 303.03044048 110.49789624 297.59040664 111.875 292.125 C120.44226341 257.19791089 115.88837205 230.19592278 101.91552734 197.18652344 C101.1191836 195.28464221 100.36263587 193.36619335 99.61328125 191.4453125 C87.76388244 161.76843981 69.04447427 130.63689592 39.03637695 117.23803711 C33.88521333 115.13772749 28.60491802 113.61356648 23.25 112.125 C22.0549585 111.78984375 20.85991699 111.4546875 19.62866211 111.109375 C10.98143813 108.72810129 2.29660741 106.50888321 -6.43737793 104.46820068 C-8.37832775 104.0138514 -10.31665833 103.54835783 -12.25488281 103.08251953 C-22.44712741 100.77593909 -33.09959393 98.76231275 -42.8125 103.625 C-49.52713389 106.78095115 -56.32707679 109.45267775 -63.28710938 112.00439453 C-65.96731561 112.98800514 -68.64561364 113.97671062 -71.3236084 114.96632385 C-73.96596226 115.94225829 -76.6091046 116.91604414 -79.25244141 117.88931274 C-80.56413216 118.37239954 -81.87566095 118.85592638 -83.18701172 119.3399353 C-85.06668482 120.03320645 -86.94739916 120.72365237 -88.828125 121.4140625 C-90.63313477 122.07776855 -90.63313477 122.07776855 -92.47460938 122.75488281 C-95.83003899 123.93997222 -99.20612051 124.98580914 -102.609375 126.0234375 C-108.54124317 127.98749424 -111.43674065 130.52082217 -114.7734375 135.8125 C-122.27508169 150.74260161 -133.5816538 174.00582731 -128.06640625 190.8515625 C-127.34857406 192.53561171 -126.58946921 194.2030925 -125.77734375 195.84375 C-124.81733994 198.50667514 -124.90526949 199.40001503 -126 202 C-127.30373393 203.95132168 -128.66671971 205.86342218 -130.0625 207.75 C-139.07072955 220.37557984 -144.64189549 234.53311782 -150 249 C-152.14211935 246.85788065 -152.46007152 245.96472231 -153.2265625 243.125 C-153.44965088 242.31659668 -153.67273926 241.50819336 -153.90258789 240.67529297 C-154.26018188 239.35102295 -154.26018188 239.35102295 -154.625 238 C-155.15585925 236.10629547 -155.6884993 234.21308949 -156.22265625 232.3203125 C-156.5077002 231.30614258 -156.79274414 230.29197266 -157.08642578 229.24707031 C-157.53864502 227.63977051 -157.53864502 227.63977051 -158 226 C-158.32339355 224.84854492 -158.64678711 223.69708984 -158.97998047 222.51074219 C-159.98765488 218.95942834 -161.02235639 215.4169237 -162.0625 211.875 C-162.37848145 210.74320313 -162.69446289 209.61140625 -163.02001953 208.4453125 C-163.33438965 207.38828125 -163.64875977 206.33125 -163.97265625 205.2421875 C-164.37883179 203.83235596 -164.37883179 203.83235596 -164.79321289 202.39404297 C-166.3383479 199.32878018 -167.92616397 198.43894773 -171 197 C-192.09426546 193.9748534 -214.21361408 205.11105062 -231 217 C-234.94938168 220.04585407 -238.22835412 222.84253117 -241 227 C-241.41282953 232.14496499 -240.56947376 235.99568887 -238.8125 240.8125 C-236.90974889 246.2054173 -235.22762131 251.60078355 -233.75 257.125 C-231.18815011 266.61910127 -228.24910369 275.99307431 -225.29785156 285.37158203 C-224.18703074 288.91092394 -223.09130452 292.45459592 -222 296 C-221.70358612 296.9422644 -221.70358612 296.9422644 -221.40118408 297.90356445 C-220.80943944 299.79154868 -220.23461336 301.68480908 -219.66015625 303.578125 C-219.31734619 304.6909082 -218.97453613 305.80369141 -218.62133789 306.95019531 C-217.75411406 311.20691835 -218.2207402 313.76948516 -220.53125 317.41796875 C-223.27491808 322.24127886 -222.70064438 327.62839307 -222 333 C-220.43058927 336.96089375 -218.29678334 339.90851644 -215.04150391 342.6484375 C-212.45941965 345.62268236 -211.71927808 348.56409486 -210.8515625 352.30859375 C-210.67345535 353.02382706 -210.49534821 353.73906036 -210.31184387 354.47596741 C-209.73702156 356.79359321 -209.18114439 359.11532913 -208.625 361.4375 C-207.84295441 364.61470525 -207.05183576 367.7896377 -206.26171875 370.96484375 C-206.06886795 371.74592499 -205.87601715 372.52700623 -205.67732239 373.33175659 C-203.86865702 380.62629522 -201.83009689 387.84476029 -199.67626953 395.04467773 C-198.76372009 398.12919967 -198 400.76376092 -198 404 C-202.54140887 403.11986771 -205.30240803 400.48989899 -208.6875 397.5 C-209.31035889 396.95609619 -209.93321777 396.41219238 -210.57495117 395.85180664 C-240.80177998 369.24045872 -260.92196568 334.06263045 -274.13916016 296.44628906 C-274.73791151 294.74478919 -275.35345182 293.04914255 -275.98193359 291.35839844 C-279.09130307 282.66167177 -280.79796625 273.8389564 -282.25 264.75 C-282.38073914 263.93607788 -282.51147827 263.12215576 -282.6461792 262.28356934 C-288.06857459 227.59400251 -286.21233034 192.64717574 -276 159 C-275.67177246 157.89615967 -275.67177246 157.89615967 -275.33691406 156.77001953 C-265.81240891 125.1345623 -248.917484 93.0633582 -226 69 C-225.34 69 -224.68 69 -224 69 C-223.773125 68.44828125 -223.54625 67.8965625 -223.3125 67.328125 C-221.61274074 64.31307583 -219.45195184 62.18769631 -217 59.75 C-216.113125 58.85796875 -215.22625 57.9659375 -214.3125 57.046875 C-212 55 -212 55 -210 55 C-210 54.34 -210 53.68 -210 53 C-189.80459254 33.89623619 -163.67596702 19.2263349 -138 9 C-137.0925 8.63261719 -136.185 8.26523437 -135.25 7.88671875 C-128.57024344 5.31222924 -121.74740429 3.58673271 -114.796875 1.9296875 C-112.40456692 1.34391659 -110.02265695 0.711941 -107.66015625 0.015625 C-74.08461076 -9.3009618 -33.61248629 -8.51579575 0 0 Z " fill="#F2C351" transform="translate(306,11)"/>
<path d="M0 0 C3.52203631 0.92284125 7.0548124 1.62877755 10.62646484 2.32910156 C22.43026597 4.67975617 34.06200463 7.60040851 45.5 11.3515625 C46.34409424 11.62379639 47.18818848 11.89603027 48.05786133 12.17651367 C71.07861462 19.9629113 84.27750164 37.79979493 96.25 57.8515625 C96.81195068 58.77332275 97.37390137 59.69508301 97.95288086 60.64477539 C102.36883398 68.00631817 106.01069903 75.54890812 109.4375 83.4140625 C109.94474609 84.55552734 110.45199219 85.69699219 110.97460938 86.87304688 C115.50017979 97.15096361 119.29447183 107.47429311 122.3125 118.2890625 C122.69656006 119.65756348 122.69656006 119.65756348 123.08837891 121.05371094 C123.58942881 122.84805006 124.08791526 124.64310752 124.58349609 126.43896484 C125.14766721 128.48114029 125.72299394 130.52022886 126.30078125 132.55859375 C130.65758048 148.64364872 126.56195654 164.80655 122.52856445 180.5949707 C121.93782343 182.91279349 121.36359721 185.23427318 120.79101562 187.55664062 C114.31558459 213.4745061 114.31558459 213.4745061 109.25 216.8515625 C108.93039637 212.2705772 109.49482387 208.3849563 110.5625 203.9140625 C110.83320313 202.77453125 111.10390625 201.635 111.3828125 200.4609375 C111.95147756 198.09406131 112.52929238 195.72936069 113.1171875 193.3671875 C115.02411165 184.75878705 115.73120109 176.22510552 116 167.4140625 C116.06405029 166.31231689 116.12810059 165.21057129 116.1940918 164.07543945 C116.25406161 159.28185224 116.18235849 156.10790036 113.26586914 152.17797852 C110.88788045 149.76015497 110.88788045 149.76015497 108.39379883 147.68994141 C104.85946327 144.65913093 103.4181996 141.66098241 102.9921875 137.078125 C103.30508897 133.16211567 104.5152986 130.82812169 106.4375 127.4140625 C107.07042969 126.28097656 107.70335937 125.14789063 108.35546875 123.98046875 C109.87972441 121.46308982 111.44439403 119.16578987 113.25 116.8515625 C115.58391203 114.07042194 115.58391203 114.07042194 114.875 111.1640625 C114.66875 110.4009375 114.4625 109.6378125 114.25 108.8515625 C90.54030449 100.33936766 90.54030449 100.33936766 66.25 100.8515625 C64.88121452 98.10800124 63.52986823 95.35801145 62.1875 92.6015625 C61.79755859 91.82425781 61.40761719 91.04695313 61.00585938 90.24609375 C60.45961914 89.11494141 60.45961914 89.11494141 59.90234375 87.9609375 C59.56195068 87.26967773 59.22155762 86.57841797 58.87084961 85.86621094 C58.11942669 83.42785391 58.35447673 82.2169557 59.25 79.8515625 C61.013747 77.73175389 62.91376002 75.81234288 64.8515625 73.8515625 C66.51848162 71.94513222 66.51848162 71.94513222 65.9609375 69.6015625 C65.72632813 69.0240625 65.49171875 68.4465625 65.25 67.8515625 C61.31365638 68.38994134 59.74395556 70.15434576 57.125 73.0390625 C49.5149468 80.92538826 40.04178557 86.59316679 28.87686157 86.92131042 C25.97348373 86.93063379 23.07125437 86.91135362 20.16796875 86.88671875 C-12.30391492 86.35978936 -12.30391492 86.35978936 -43.2734375 94.87182617 C-50.41055603 97.6952939 -59.03288749 100.23835862 -66.75 98.8515625 C-69.3125 97.4765625 -69.3125 97.4765625 -70.75 94.8515625 C-71.66109922 89.33701457 -71.38477673 84.06941238 -68.171875 79.37109375 C-60.7666588 71.45727753 -47.22222635 69.34304807 -37.0546875 67 C-29.16514426 65.14465686 -22.18981635 62.4448828 -14.875 58.9765625 C-14.00713867 58.56575439 -13.13927734 58.15494629 -12.24511719 57.73168945 C-6.41656226 54.88047468 -1.05841784 51.57854433 4.25 47.8515625 C3.92 46.8615625 3.59 45.8715625 3.25 44.8515625 C2.63511719 45.05652344 2.02023437 45.26148438 1.38671875 45.47265625 C-1.9921875 46.59895833 -5.37109375 47.72526042 -8.75 48.8515625 C-9.25660156 47.58699219 -9.25660156 47.58699219 -9.7734375 46.296875 C-10.21945312 45.20117188 -10.66546875 44.10546875 -11.125 42.9765625 C-11.56585938 41.88601562 -12.00671875 40.79546875 -12.4609375 39.671875 C-13.58051338 36.78826888 -13.58051338 36.78826888 -15.75 34.8515625 C-17.85820797 35.1700802 -17.85820797 35.1700802 -19.75 35.8515625 C-20.08 37.5015625 -20.41 39.1515625 -20.75 40.8515625 C-22.52074917 40.87861979 -24.29161711 40.89798445 -26.0625 40.9140625 C-27.04863281 40.92566406 -28.03476562 40.93726563 -29.05078125 40.94921875 C-31.75 40.8515625 -31.75 40.8515625 -34.75 39.8515625 C-42.16748175 38.9023418 -48.49525666 40.48399839 -55.45776367 42.85083008 C-62.7537073 45.29553055 -70.17036089 46.6118077 -77.75 47.8515625 C-78.31110943 49.57772358 -78.87076408 51.30436941 -79.42358398 53.03320312 C-79.89424965 54.50499578 -80.37040001 55.97504488 -80.85180664 57.44335938 C-82.14454779 61.49082252 -82.92705293 65.09091557 -83.1875 69.3515625 C-83.79860285 73.12639574 -84.69118763 73.80870299 -87.875 76.12890625 C-90.35033698 77.59577261 -92.88024976 78.89795221 -95.46484375 80.16015625 C-98.17714471 81.55662036 -99.83910026 82.54579049 -101.75 84.8515625 C-102.74 84.5215625 -103.73 84.1915625 -104.75 83.8515625 C-108.08082045 75.26155185 -106.80026545 67.63472979 -104.25 59.0390625 C-103.98590332 58.13486572 -103.72180664 57.23066895 -103.44970703 56.29907227 C-101.49435205 49.82793922 -99.21215991 43.53344823 -96.625 37.2890625 C-96.30080078 36.49846436 -95.97660156 35.70786621 -95.64257812 34.89331055 C-93.53855106 30.01361086 -91.78817187 26.21968563 -86.7109375 23.93334961 C-84.09847445 22.91975812 -81.46601358 22.0021517 -78.8125 21.1015625 C-76.80940599 20.39722488 -74.80681284 19.69146143 -72.8046875 18.984375 C-71.78987305 18.62891602 -70.77505859 18.27345703 -69.72949219 17.90722656 C-65.27381042 16.32853368 -60.85306528 14.66373822 -56.4375 12.9765625 C-55.60057617 12.6571167 -54.76365234 12.3376709 -53.90136719 12.00854492 C-13.05506118 -3.67173596 -13.05506118 -3.67173596 0 0 Z " fill="#E2AE68" transform="translate(289.75,120.1484375)"/>
<path d="M0 0 C165 0 330 0 500 0 C500 165 500 330 500 500 C335 500 170 500 0 500 C0 335 0 170 0 0 Z M14 11 C13.28662468 11.66194783 12.57324935 12.32389567 11.8382566 13.00590253 C10.13887902 14.61517096 8.5491197 16.24590772 7 18 C5.97851104 19.05577163 5.97851104 19.05577163 4.93638593 20.13287199 C2.53682548 23.6858037 2.43611341 26.47227771 2.48266888 30.61232948 C2.47535713 31.3745713 2.46804539 32.13681312 2.46051207 32.92215317 C2.44084619 35.48538118 2.4497184 38.04771508 2.4584198 40.61099243 C2.45023288 42.46363644 2.44031803 44.31627348 2.42882043 46.16889989 C2.40235949 51.26713995 2.40101131 56.36512725 2.40380609 61.46342397 C2.40256731 66.95921344 2.37847254 72.45491005 2.35749817 77.95065308 C2.32038379 88.72140016 2.30570525 99.49206588 2.30002364 110.26287134 C2.29539276 119.0179159 2.28481638 127.77293237 2.27004433 136.52796555 C2.23572564 157.30492742 2.20694283 178.08187259 2.20516491 198.85886574 C2.20510201 199.52344537 2.2050391 200.18802501 2.20497429 200.87274342 C2.20466715 204.24110887 2.20441563 207.60947432 2.20416924 210.97783978 C2.20406533 212.32979032 2.20396139 213.68174087 2.20385742 215.03369141 C2.20381214 215.70351784 2.20376685 216.37334427 2.20372019 217.06346847 C2.20204065 238.10380966 2.16494863 259.14384045 2.10131836 280.18408203 C2.02984005 303.82391352 1.98900988 327.46358778 1.99052221 351.10354841 C1.99060155 363.61973196 1.97659413 376.13553904 1.92616844 388.6516304 C1.88345946 399.30972971 1.8717997 409.96730075 1.90043481 420.62545688 C1.91414205 426.06304895 1.913363 431.49961107 1.87331772 436.93709564 C1.83699652 441.91819779 1.8424549 446.89746736 1.88076083 451.87853853 C1.88732641 453.67737283 1.87877976 455.47634135 1.85333624 457.27500768 C1.71660625 467.61806683 2.22608074 474.10653509 9.75896627 481.95624006 C10.4985074 482.63068084 11.23804853 483.30512162 12 484 C12.56342124 484.53040661 13.12684247 485.06081323 13.70733708 485.60729277 C15.35739797 487.09117983 15.35739797 487.09117983 18 488.9375 C19.3921875 489.97197266 19.3921875 489.97197266 20.8125 491.02734375 C21.864375 491.67832031 22.91625 492.32929688 24 493 C24.55272227 493.34627296 25.10544454 493.69254592 25.67491597 494.049312 C33.41011574 498.18335652 41.69748504 497.56279499 50.21211243 497.52139282 C51.97262395 497.5274383 53.73313022 497.53521849 55.49362725 497.54457796 C60.31868875 497.5651245 65.14345282 497.56077793 69.96853864 497.55221677 C75.17728013 497.5472798 80.38595023 497.56531369 85.59466553 497.58029175 C95.79437957 497.6057834 105.99398831 497.60937341 116.19372884 497.60469122 C124.4852811 497.6011242 132.7768014 497.6046256 141.06834984 497.61314011 C142.248745 497.61433048 143.42914017 497.61552086 144.64530488 497.61674731 C147.04334131 497.61917083 149.44137773 497.6215991 151.83941414 497.62403207 C174.32581842 497.64578239 196.8121627 497.64145848 219.29857036 497.62926237 C239.86322098 497.61892493 260.4276821 497.64143256 280.99229524 497.67945881 C302.11484785 497.71821691 323.23731082 497.73472733 344.35989922 497.72721231 C356.21588545 497.7233883 368.07171041 497.72836299 379.92766762 497.75664139 C390.02123176 497.78047276 400.11453536 497.78327485 410.2081031 497.75906105 C415.35602404 497.74728582 420.50346849 497.74507722 425.65135765 497.76906586 C430.36865945 497.79079216 435.08508718 497.7845687 439.80234816 497.75654249 C441.50416522 497.75125074 443.20605088 497.75597525 444.90780059 497.77201422 C455.22186341 497.86243768 463.07916178 496.71620432 472 491 C473.06476563 490.319375 474.12953125 489.63875 475.2265625 488.9375 C485.99788466 480.2362365 493.62101653 469.1369504 498 456 C498.09947032 453.72084744 498.13640858 451.43883308 498.14260101 449.15751934 C498.14585203 448.45420033 498.14910305 447.75088132 498.15245259 447.02624962 C498.16217528 444.651661 498.16474743 442.27711794 498.1673584 439.9025116 C498.17280345 438.18985704 498.17866676 436.47720376 498.18491411 434.76455194 C498.20078972 430.04390674 498.2102886 425.32326675 498.21867895 420.60260308 C498.22667573 416.55688876 498.2383679 412.51118854 498.25009376 408.46548357 C498.29203226 393.97049695 498.31921419 379.47549376 498.34375 364.98046875 C498.3457249 363.83646977 498.3476998 362.69247079 498.34973454 361.51380518 C498.38890151 338.79882325 498.42260804 316.08383586 498.44481659 293.36883068 C498.44978594 288.37292154 498.45483025 283.37701249 498.45996094 278.38110352 C498.46123161 277.13938601 498.46250228 275.8976685 498.46381146 274.61832318 C498.48516087 254.51375928 498.53414392 234.40935907 498.59420508 214.30487748 C498.65536025 193.66391009 498.69000961 173.02302707 498.6992898 152.38197023 C498.70519766 140.79293271 498.7229211 129.20417227 498.77067566 117.61522484 C498.81131989 107.74262802 498.82813771 97.87035351 498.81402284 87.99767675 C498.80756506 82.96286983 498.81233026 77.92874903 498.84789658 72.89404869 C498.88024604 68.27748575 498.87978606 63.66208929 498.85407954 59.04549531 C498.85044946 57.38247536 498.85847636 55.71937661 498.87986106 54.05649021 C499.09675263 36.09712902 491.8551911 24.08715715 479.5 11.1875 C474.52512877 6.09196958 469.60426253 2.58432619 462.33935589 2.46054924 C461.30556847 2.47288115 461.30556847 2.47288115 460.25089645 2.48546219 C459.49816556 2.47845004 458.74543467 2.47143789 457.96989375 2.46421325 C455.45104737 2.44562546 452.93312994 2.45542005 450.41424561 2.46514893 C448.58874963 2.45767427 446.76326005 2.44847057 444.93778062 2.43768764 C439.92386209 2.41321663 434.91021034 2.41374977 429.89624572 2.41846514 C424.48774968 2.4192812 419.07933932 2.39720581 413.67088318 2.37823486 C403.07553272 2.34500697 392.48027127 2.33401542 381.88487306 2.33178535 C373.27242049 2.32988477 364.6599973 2.32166611 356.04755402 2.30898285 C331.63009335 2.27375586 307.21270302 2.25530544 282.79521677 2.25830474 C281.47882551 2.25846457 280.16243425 2.25862439 278.80615234 2.25878906 C277.48815393 2.25895259 276.17015551 2.25911611 274.81221774 2.25928459 C253.45132936 2.26091045 232.09074624 2.22263227 210.72993645 2.1662356 C188.79723091 2.10878589 166.86466294 2.08115456 144.93188024 2.0846107 C132.61808822 2.08593879 120.30459187 2.07494201 107.99086761 2.0318985 C97.50668222 1.99548519 87.02292649 1.98677126 76.53870526 2.01393619 C71.19028925 2.0270013 65.84269767 2.02721182 60.49435997 1.99252319 C55.59487256 1.96107282 50.69686351 1.96677309 45.79741231 2.00165972 C44.02825194 2.00780245 42.25898141 2.00052337 40.48995098 1.97821942 C29.54000379 1.84934247 22.23066877 3.0723497 14 11 Z " fill="#FEFDFB" transform="translate(0,0)"/>
<path d="M0 0 C0.66 0 1.32 0 2 0 C4.26446562 4.39572737 4.02292187 7.21153964 3 12 C1.55452683 15.27781159 -0.29988867 18.31274827 -2.1171875 21.39453125 C-4.54690527 25.67757388 -5.59420806 29.07977276 -6 34 C-3.72753662 31.9086545 -2.30897727 29.97741243 -0.95703125 27.20703125 C-0.60576172 26.49482422 -0.25449219 25.78261719 0.10742188 25.04882812 C0.46384766 24.31083984 0.82027344 23.57285156 1.1875 22.8125 C1.55552734 22.06291016 1.92355469 21.31332031 2.30273438 20.54101562 C3.20728218 18.69667788 4.10437576 16.84868755 5 15 C5.66 15 6.32 15 7 15 C7.53532823 16.55759343 8.05265378 18.12138045 8.5625 19.6875 C8.85253906 20.55761719 9.14257812 21.42773438 9.44140625 22.32421875 C10.40063163 26.91910958 8.90180106 30.56378384 6.96875 34.72265625 C6.57042969 35.59083984 6.17210937 36.45902344 5.76171875 37.35351562 C5.13716797 38.69446289 5.13716797 38.69446289 4.5 40.0625 C3.67400649 41.84362843 2.85097224 43.62613293 2.03125 45.41015625 C1.48307617 46.58783569 1.48307617 46.58783569 0.92382812 47.78930664 C0.06198923 49.8516616 -0.52524307 51.81978442 -1 54 C2.05226229 53.34533347 2.05226229 53.34533347 3.04321289 51.25 C3.3499292 50.5075 3.65664551 49.765 3.97265625 49 C4.31490234 48.195625 4.65714844 47.39125 5.00976562 46.5625 C5.35716797 45.716875 5.70457031 44.87125 6.0625 44 C6.7558457 42.33088155 7.45479123 40.66407476 8.16015625 39 C8.61853882 37.88625 8.61853882 37.88625 9.08618164 36.75 C10 35 10 35 12 34 C14.77496088 39.43429838 16.01494988 43.90081521 15 50 C13.62318 54.14179186 11.85538538 58.05290645 10 62 C9.08097308 63.97807179 8.16419422 65.95719007 7.25 67.9375 C6.84265625 68.79214844 6.4353125 69.64679688 6.015625 70.52734375 C4.99262061 73.01796597 4.4363029 75.34898561 4 78 C8.39276125 74.40502723 10.01526889 69.91837017 12.125 64.8125 C12.80918943 63.17069971 13.49901405 61.53123277 14.1953125 59.89453125 C14.49453613 59.17112549 14.79375977 58.44771973 15.10205078 57.70239258 C16 56 16 56 18 55 C18.51468115 56.49502619 19.01088241 57.99641629 19.5 59.5 C19.7784375 60.3353125 20.056875 61.170625 20.34375 62.03125 C22.01730746 69.60210518 20.74090543 74.75022453 17.625 81.625 C16.99041379 83.07474573 16.35756624 84.52525391 15.7265625 85.9765625 C15.42782227 86.65750977 15.12908203 87.33845703 14.82128906 88.04003906 C13.72906435 90.64657295 12.84210669 93.30355736 12 96 C13.485 96.495 13.485 96.495 15 97 C15.391875 95.741875 15.78375 94.48375 16.1875 93.1875 C18.03884094 87.59787448 20.48545526 82.31731793 23 77 C25 78 25 78 26.125 81.0625 C28.34059035 88.30577615 27.04606563 94.0954028 23.6875 100.5625 C23.06535678 101.81328062 22.44425733 103.06458098 21.82421875 104.31640625 C21.51959717 104.92363525 21.21497559 105.53086426 20.90112305 106.15649414 C18.70576324 110.64773279 16.75475916 115.01858958 16 120 C16.99 120 17.98 120 19 120 C19.350625 118.80375 19.70125 117.6075 20.0625 116.375 C22.30103034 109.5833424 25.71359345 103.32970905 29 97 C32.12141177 100.12141177 32.87477329 103.74591924 33.11328125 108.0390625 C32.76123723 114.71575936 29.7951808 123.2048192 25 128 C21.6875 128.3125 21.6875 128.3125 18 128 C16.125 126.375 16.125 126.375 14 124 C12.52617507 122.90147993 11.02294029 121.84184889 9.5 120.8125 C8.7471875 120.30332031 7.994375 119.79414063 7.21875 119.26953125 C5.10858049 118.06212792 3.37482506 117.44797836 1 117 C0.690625 117.78375 0.38125 118.5675 0.0625 119.375 C-1 122 -1 122 -2 124 C-14.7230033 121.54468357 -28.78964733 118.29716439 -37.5 108.0625 C-39.16904731 104.65486174 -39.6986741 101.76657376 -40 98 C-29.18793405 103.77156545 -29.18793405 103.77156545 -25.625 106.3125 C-22.98786108 108.00780359 -21.08837978 108.6366612 -18 109 C-18 108.01 -18 107.02 -18 106 C-18.68191406 105.76023437 -19.36382812 105.52046875 -20.06640625 105.2734375 C-23.60177276 103.73877774 -26.73049105 101.7376905 -29.9375 99.625 C-30.53240234 99.23828125 -31.12730469 98.8515625 -31.74023438 98.453125 C-32.92553387 97.68106107 -34.1062886 96.90197166 -35.28222656 96.11572266 C-36.91347287 95.05620082 -38.60263971 94.08746494 -40.29296875 93.125 C-43.68284599 90.46397082 -44.28553507 88.50006805 -45.375 84.375 C-45.69210938 83.22773438 -46.00921875 82.08046875 -46.3359375 80.8984375 C-47 78 -47 78 -47 76 C-41.34795844 77.93213209 -36.59895374 81.32360604 -31.61914062 84.54296875 C-30.92626953 84.98511719 -30.23339844 85.42726563 -29.51953125 85.8828125 C-28.89151611 86.28902832 -28.26350098 86.69524414 -27.61645508 87.11376953 C-26.01495572 88.16024798 -26.01495572 88.16024798 -24 88 C-23.505 86.515 -23.505 86.515 -23 85 C-23.88042969 84.74734375 -24.76085937 84.4946875 -25.66796875 84.234375 C-29.09943216 82.96316464 -31.4163075 81.46397827 -34.3125 79.25 C-37.76592436 76.6246447 -41.18452159 74.29256179 -44.9375 72.125 C-49.8807889 68.90920453 -51.61966424 64.60821731 -53 59 C-53 58.01 -53 57.02 -53 56 C-47.54034863 57.67049034 -42.80566539 60.13865252 -37.8046875 62.85546875 C-34.88092103 64.04859351 -33.85991021 64.18364705 -31 63 C-32.45019531 62.23816406 -32.45019531 62.23816406 -33.9296875 61.4609375 C-36.63409949 60.03686674 -39.3254299 58.59074883 -42.01171875 57.1328125 C-44.34935854 55.86619848 -46.67210951 54.68481557 -49.08203125 53.5546875 C-54.53644404 50.82339234 -56.61369288 48.59601378 -58.625 42.75 C-60 37.67889908 -60 37.67889908 -60 35 C-54.53262809 36.74807129 -49.24175152 38.65794081 -44 41 C-45.35617531 37.70901459 -46.48929751 36.38604881 -49.6953125 34.859375 C-50.76845703 34.33730469 -50.76845703 34.33730469 -51.86328125 33.8046875 C-52.98283203 33.28261719 -52.98283203 33.28261719 -54.125 32.75 C-54.87910156 32.38648438 -55.63320312 32.02296875 -56.41015625 31.6484375 C-58.26821586 30.75468731 -60.13344818 29.87587625 -62 29 C-62 28.01 -62 27.02 -62 26 C-41.46808511 22.65957447 -41.46808511 22.65957447 -32 29 C-33.67045371 34.43302905 -36.09681336 39.19161556 -38.7578125 44.1953125 C-40.26997105 47.09831419 -40.26997105 47.09831419 -40 51 C-39.34 51.33 -38.68 51.66 -38 52 C-37.75507812 51.16726563 -37.51015625 50.33453125 -37.2578125 49.4765625 C-35.57295232 44.81965082 -33.18931346 40.68528109 -30.74609375 36.390625 C-28.81902474 32.90354775 -28 31.0744092 -28 27 C-32.455 25.02 -32.455 25.02 -37 23 C-37 22.34 -37 21.68 -37 21 C-25.00921448 15.30309763 -25.00921448 15.30309763 -20.20703125 16.96875 C-17.875 18.625 -17.875 18.625 -15.8671875 20.4140625 C-13.87776755 22.10382087 -12.54439197 22.58158888 -10 23 C-10 21.68 -10 20.36 -10 19 C-10.8353125 18.87625 -10.8353125 18.87625 -11.6875 18.75 C-14.69002746 17.77620731 -16.58772879 16.00022488 -19 14 C-17.69675781 13.23816406 -17.69675781 13.23816406 -16.3671875 12.4609375 C-10.24244655 8.82174004 -4.87021722 5.2650997 0 0 Z " fill="#E6BE55" transform="translate(136,225)"/>
<path d="M0 0 C1.33333333 2 2.66666667 4 4 6 C7.78911404 9.42061669 10.50641104 9.5415092 15.46484375 9.44140625 C20.79724383 8.77559276 25.88697282 7.29402688 31.01000977 5.69140625 C40.28551742 2.93709014 47.57980519 4.51321769 56 9 C58.74477617 10.56279148 61.38584603 12.22837689 64 14 C65.2684375 14.8353125 65.2684375 14.8353125 66.5625 15.6875 C76.46145201 25.07881345 81.40679817 37.97941396 84.875 50.875 C85.09043457 51.67156006 85.30586914 52.46812012 85.52783203 53.28881836 C85.81956299 54.44136108 85.81956299 54.44136108 86.1171875 55.6171875 C86.28847168 56.29378418 86.45975586 56.97038086 86.63623047 57.66748047 C87.11595295 60.74349965 87 63.88679784 87 67 C81.72 66.67 76.44 66.34 71 66 C70.5875 63.73125 70.175 61.4625 69.75 59.125 C67.05740238 45.33270142 61.7000538 33.41966488 50 25 C41.76905916 20.15567167 34.00919484 18.71170562 24.4921875 20.4609375 C18.77796734 22.15330236 14.47840693 25.13771887 10 29 C9.40316406 29.47953125 8.80632812 29.9590625 8.19140625 30.453125 C-2.22257296 39.63783718 -5.20888685 52.86517024 -7 66 C-8.31355469 66.02578125 -9.62710938 66.0515625 -10.98046875 66.078125 C-12.7161785 66.13441829 -14.4518543 66.19176535 -16.1875 66.25 C-17.05181641 66.26417969 -17.91613281 66.27835937 -18.80664062 66.29296875 C-22.61348962 66.43882503 -25.44608362 66.74263965 -28.92578125 68.359375 C-35.6460294 76.91471916 -34.72627764 89.79469318 -35.1875 100.1875 C-35.26907103 101.82362349 -35.35174523 103.45969237 -35.43554688 105.09570312 C-35.63640833 109.06328775 -35.82237362 113.03131007 -36 117 C-41.50242363 111.49757637 -43.32534977 98.28312888 -43.4375 90.6875 C-42.04483632 63.21062191 -32.95308296 27.95308296 -13 8 C-3.81700555 0 -3.81700555 0 0 0 Z " fill="#EBBF52" transform="translate(213,216)"/>
<path d="M0 0 C0.66 0 1.32 0 2 0 C2.350625 0.86625 2.70125 1.7325 3.0625 2.625 C9.12576708 13.18682008 21.30824251 16.80688071 32.40625 20.03515625 C39.56566193 21.95730272 46.71857315 23.61656908 54 25 C54.89283691 25.17031738 55.78567383 25.34063477 56.70556641 25.51611328 C114.54152978 36.06693344 176.33003025 34.09093718 234.65075684 29.19598389 C236.8048056 29.01628395 238.95930718 28.84474315 241.11425781 28.67626953 C254.61533114 27.58376971 267.7657475 25.44056421 281 22.625 C281.67481415 22.48396851 282.3496283 22.34293701 283.04489136 22.19763184 C293.9473932 19.88742944 303.58774042 16.47423196 313 10.4375 C313.886875 9.87933594 314.77375 9.32117188 315.6875 8.74609375 C319.04978975 6.20733781 320.67077886 3.98766343 322 0 C322.66 0 323.32 0 324 0 C324.91404429 4.47086879 325.53196684 7.81516477 323.625 12.0625 C322.75875 13.031875 321.8925 14.00125 321 15 C320.22269531 15.92232422 320.22269531 15.92232422 319.4296875 16.86328125 C303.03529685 33.95459944 270.62717859 37.07885265 248.27539062 39.61279297 C245.27950191 39.96695811 242.29347938 40.37161577 239.30516052 40.78388977 C214.51589075 44.11560189 189.69931532 44.40982866 164.73085022 44.43390274 C162.10866889 44.43743776 159.48654534 44.44608295 156.86437988 44.45565796 C127.73437619 44.54101566 98.68706495 43.46358522 69.94970703 38.32763672 C66.70758394 37.78281714 63.45040224 37.40163904 60.1875 37 C41.60277679 34.53792128 14.37937086 29.81532181 1.72265625 14.44921875 C-1.24020479 10.1096748 -1.21159421 6.82744933 -0.359375 1.72265625 C-0.24078125 1.15417969 -0.1221875 0.58570313 0 0 Z " fill="#CC9D46" transform="translate(90,332)"/>
<path d="M0 0 C1.01147461 1.60717773 1.01147461 1.60717773 1.90234375 3.68359375 C2.23363281 4.44115967 2.56492187 5.19872559 2.90625 5.97924805 C3.2465625 6.79047119 3.586875 7.60169434 3.9375 8.4375 C4.28941406 9.26354736 4.64132812 10.08959473 5.00390625 10.94067383 C5.69766166 12.57276554 6.38771139 14.20643827 7.07373047 15.84179688 C7.80510261 17.54589012 8.59709441 19.22396084 9.41015625 20.890625 C12.73022652 27.88776234 13.45105626 35.4133046 12 43 C8.49208705 47.76886545 1.91319353 48.81874908 -3.60546875 50.03125 C-7.61238083 51.6523172 -10.15448874 54.09854904 -11.92407227 58.078125 C-12.75200397 60.45238147 -13.48788773 62.83490012 -14.1875 65.25 C-14.67436326 66.88219954 -15.16753156 68.512536 -15.66796875 70.140625 C-15.98157349 71.21618652 -15.98157349 71.21618652 -16.30151367 72.31347656 C-17 74 -17 74 -19 75 C-19.1959375 74.03964844 -19.391875 73.07929688 -19.59375 72.08984375 C-23.75323846 52.68291409 -29.53769548 31.61326195 -42.3203125 16.046875 C-44.70688597 13.13858547 -46.83882052 10.0780435 -49 7 C-48 6 -48 6 -44.23828125 5.97265625 C-42.5963416 6.00190716 -40.95441516 6.03190531 -39.3125 6.0625 C-27.16541258 6.14779459 -16.52537606 5.25779229 -5.42578125 -0.07421875 C-3 -1 -3 -1 0 0 Z " fill="#EEC051" transform="translate(343,208)"/>
<path d="M0 0 C5.36575264 3.73719965 9.78143947 9.05957289 11.2265625 15.55078125 C12.09314681 22.98414885 11.9351553 29.22987876 7.78125 35.61328125 C3.62511106 40.79279108 -0.30032566 43.81044339 -6.7734375 45.55078125 C-20.72531169 46.92834862 -20.72531169 46.92834862 -26.18359375 43.01171875 C-32.6473566 37.07204478 -37.20308976 32.1904898 -37.98046875 23.140625 C-38.28972202 15.54673908 -36.38528348 10.33104776 -31.6484375 4.36328125 C-22.97766375 -4.97866118 -10.97226878 -6.18278638 0 0 Z " fill="#44361C" transform="translate(217.7734375,43.44921875)"/>
<path d="M0 0 C5.97281725 3.37979455 10.18823739 7.47032552 12.10546875 14.19140625 C12.91864478 20.82957794 13.08139971 27.45861805 9.5703125 33.34375 C5.32877911 38.69373746 0.0445154 44.10292834 -6.89453125 45.19140625 C-14.32742811 45.84507945 -20.80860282 45.90309278 -26.89453125 41.19140625 C-31.36680495 36.86968434 -35.55314651 32.5830858 -36.1953125 26.203125 C-36.22607497 17.47683879 -35.77304048 12.08234092 -29.70703125 5.50390625 C-21.15934639 -2.57193189 -10.70765231 -5.28932222 0 0 Z " fill="#43351B" transform="translate(430.89453125,138.80859375)"/>
<path d="M0 0 C6.9436882 -0.48374025 13.23986896 1.30940979 19.9375 3 C21.09830078 3.28617188 22.25910156 3.57234375 23.45507812 3.8671875 C26.30525417 4.57093467 29.15337266 5.28205799 32 6 C31.39100119 8.81028786 30.53870188 11.09463308 29.15234375 13.609375 C28.79462891 14.28226563 28.43691406 14.95515625 28.06835938 15.6484375 C27.32007835 17.03902537 26.56237323 18.42458694 25.79492188 19.8046875 C22.66814261 25.75291858 21.92375776 30.34846384 23.875 36.96875 C24.24625 37.8040625 24.6175 38.639375 25 39.5 C25.37125 40.3559375 25.7425 41.211875 26.125 42.09375 C26.41375 42.7228125 26.7025 43.351875 27 44 C25.87926138 44.83905565 24.75325453 45.67107831 23.625 46.5 C22.99851562 46.9640625 22.37203125 47.428125 21.7265625 47.90625 C20 49 20 49 18 49 C17.360625 48.030625 16.72125 47.06125 16.0625 46.0625 C14.28938993 42.75744775 14.28938993 42.75744775 11 42 C11.495 43.0725 11.99 44.145 12.5 45.25 C13.88653911 48.25416808 14 49.45934895 14 53 C11.375 55.140625 11.375 55.140625 8 57.25 C6.88625 57.95640625 5.7725 58.6628125 4.625 59.390625 C3.75875 59.92171875 2.8925 60.4528125 2 61 C-1.99528484 59.4940168 -3.55485993 57.17068315 -5.8125 53.625 C-6.75029297 52.19027344 -6.75029297 52.19027344 -7.70703125 50.7265625 C-9 48 -9 48 -8.85546875 45.74609375 C-7.5882344 43.15954692 -5.4486219 42.40795759 -3 41 C-2.67 40.01 -2.34 39.02 -2 38 C-3.093125 38.474375 -4.18625 38.94875 -5.3125 39.4375 C-7.53476255 40.40187809 -9.69500485 41.23166828 -12 42 C-15 37.25 -15 37.25 -15 35 C-13.96939453 34.56300781 -13.96939453 34.56300781 -12.91796875 34.1171875 C-12.01691406 33.70726562 -11.11585938 33.29734375 -10.1875 32.875 C-8.84751953 32.28332031 -8.84751953 32.28332031 -7.48046875 31.6796875 C-4.171214 29.43877484 -3.32860751 27.77649209 -2 24 C-1.55161232 20.62614295 -1.4442962 17.27546368 -1.375 13.875 C-1.32381552 12.10145794 -1.26925302 10.32800941 -1.2109375 8.5546875 C-1.19337402 7.77593262 -1.17581055 6.99717773 -1.15771484 6.19482422 C-1.00163166 4.02270689 -0.59346447 2.09111404 0 0 Z " fill="#D0A145" transform="translate(364,227)"/>
<path d="M0 0 C4.21599723 0.48182825 7.51688728 1.57482113 11 4 C12.62776112 7.39221318 13.48606807 10.91690757 14.375 14.5625 C14.76365234 16.01946289 14.76365234 16.01946289 15.16015625 17.50585938 C17 24.50992063 17 24.50992063 17 27 C20.51990818 23.52440721 23.91683924 19.96999527 27.25 16.3125 C28.55710937 14.88357422 28.55710937 14.88357422 29.890625 13.42578125 C32.00493863 11.1979846 32.00493863 11.1979846 33 9 C34.64574566 8.97311849 36.29161413 8.95365877 37.9375 8.9375 C39.31228516 8.92009766 39.31228516 8.92009766 40.71484375 8.90234375 C43 9 43 9 44 10 C44.32002385 25.08683843 40.71743859 40.23150731 38 55 C36.54052295 54.93993922 35.08220728 54.8511311 33.625 54.75 C32.81289063 54.70359375 32.00078125 54.6571875 31.1640625 54.609375 C29 54 29 54 27.66625977 52.26245117 C26.852833 49.50025776 27.10758164 47.85787621 27.71484375 45.05078125 C27.90626953 44.12072266 28.09769531 43.19066406 28.29492188 42.23242188 C28.61299805 40.78706055 28.61299805 40.78706055 28.9375 39.3125 C29.34729061 37.39295453 29.752503 35.47242391 30.15234375 33.55078125 C30.33788818 32.70169189 30.52343262 31.85260254 30.71459961 30.9777832 C30.80878174 30.32511475 30.90296387 29.67244629 31 29 C30.67 28.67 30.34 28.34 30 28 C29.48614746 28.71917603 29.48614746 28.71917603 28.96191406 29.45288086 C27.40225134 31.62256021 25.8264366 33.77998154 24.25 35.9375 C23.71117187 36.69224609 23.17234375 37.44699219 22.6171875 38.22460938 C22.08867187 38.94326172 21.56015625 39.66191406 21.015625 40.40234375 C20.53383789 41.06741943 20.05205078 41.73249512 19.55566406 42.41772461 C17.74932632 44.25496173 16.51349424 44.61823342 14 45 C10.5460968 37.89010353 8.20279077 30.58088102 6 23 C4.46900195 27.33451397 3.36582997 31.62430079 2.4375 36.125 C0.8791866 43.63397129 0.8791866 43.63397129 0 47 C-1.64630328 46.85957123 -3.29204179 46.71250671 -4.9375 46.5625 C-5.85402344 46.48128906 -6.77054687 46.40007812 -7.71484375 46.31640625 C-10 46 -10 46 -11 45 C-10.49836245 39.30807015 -9.37200552 33.90832804 -7.96875 28.37890625 C-7.67478333 27.2008567 -7.67478333 27.2008567 -7.37487793 25.99900818 C-6.96361898 24.35562011 -6.55005733 22.7128067 -6.13427734 21.07055664 C-5.49598395 18.54661976 -4.86664775 16.02056514 -4.23828125 13.49414062 C-3.83646298 11.89309719 -3.43413769 10.29218091 -3.03125 8.69140625 C-2.84268433 7.93420792 -2.65411865 7.17700958 -2.45983887 6.39686584 C-1.11535937 1.11535937 -1.11535937 1.11535937 0 0 Z " fill="#45381D" transform="translate(271,34)"/>
<path d="M0 0 C6.16149182 0.57081941 11.39466957 2.47703801 17.125 4.75 C18.98689991 5.47806729 20.84887904 6.20593204 22.7109375 6.93359375 C24.06203613 7.46509033 24.06203613 7.46509033 25.44042969 8.00732422 C27.69290244 8.88089864 29.95256336 9.71968752 32.2265625 10.53515625 C33.38929687 10.95667969 34.55203125 11.37820312 35.75 11.8125 C36.75546875 12.16957031 37.7609375 12.52664062 38.796875 12.89453125 C41 14 41 14 42 17 C40.875 19.625 40.875 19.625 39 22 C35.2008618 23.21211554 32.83718648 22.92722341 29.13671875 21.56640625 C28.25048828 21.24736328 27.36425781 20.92832031 26.45117188 20.59960938 C25.53916016 20.25736328 24.62714844 19.91511719 23.6875 19.5625 C22.75615234 19.22412109 21.82480469 18.88574219 20.86523438 18.53710938 C18.57255484 17.70233888 16.28467118 16.85639447 14 16 C15.79005267 18.29294372 17.58196138 20.58439317 19.375 22.875 C19.88289063 23.52597656 20.39078125 24.17695313 20.9140625 24.84765625 C21.64882812 25.78544922 21.64882812 25.78544922 22.3984375 26.7421875 C22.84880371 27.3182373 23.29916992 27.89428711 23.76318359 28.48779297 C25.06821508 30.13466754 25.06821508 30.13466754 27 32 C26.67 33.65 26.34 35.3 26 37 C16.1 37.495 16.1 37.495 6 38 C7.28777344 38.66386719 8.57554688 39.32773438 9.90234375 40.01171875 C11.58121136 40.90273787 13.25957077 41.79471501 14.9375 42.6875 C15.78763672 43.12255859 16.63777344 43.55761719 17.51367188 44.00585938 C18.32255859 44.44091797 19.13144531 44.87597656 19.96484375 45.32421875 C20.7137085 45.71697998 21.46257324 46.10974121 22.23413086 46.5144043 C24 48 24 48 24.84204102 50.49145508 C25.05059024 53.80342302 23.89255128 55.3504282 22 58 C15.53612528 55.54520788 9.44287688 52.29223343 3.29052734 49.15722656 C0.93827958 47.96881744 -1.42655444 46.80834088 -3.79296875 45.6484375 C-5.34162068 44.87073652 -6.8898106 44.09211474 -8.4375 43.3125 C-9.17709961 42.95663818 -9.91669922 42.60077637 -10.67871094 42.23413086 C-15.73456004 39.6459039 -15.73456004 39.6459039 -17.0546875 36.43359375 C-16.96520223 32.45149941 -15.76493408 30.82923487 -13 28 C-9.68244826 27.02125868 -6.44271615 27.01367967 -3 27 C-1.83082031 26.98582031 -0.66164063 26.97164062 0.54296875 26.95703125 C3.69656684 26.93983606 6.84674957 26.95551841 10 27 C9.57589844 26.45472656 9.15179688 25.90945312 8.71484375 25.34765625 C7.48170688 23.76219456 6.25283233 22.17341212 5.02734375 20.58203125 C3.69687329 18.88753997 2.33539622 17.2168521 0.94140625 15.57421875 C0.30074219 14.80722656 -0.33992188 14.04023438 -1 13.25 C-1.598125 12.55390625 -2.19625 11.8578125 -2.8125 11.140625 C-4 9 -4 9 -3.78515625 6.37890625 C-2.92622018 3.77645816 -1.76869016 2.07628845 0 0 Z " fill="#44361B" transform="translate(72,142)"/>
<path d="M0 0 C2.22033397 2.62037967 3.89194827 5.54265606 5.625 8.5 C6.67170014 10.23006109 7.71991243 11.9592081 8.76953125 13.6875 C9.3001416 14.56921875 9.83075195 15.4509375 10.37744141 16.359375 C11.95342162 18.92419624 13.58838617 21.43532044 15.26171875 23.9375 C15.77460449 24.70642578 16.28749023 25.47535156 16.81591797 26.26757812 C17.79918223 27.73429402 18.78891423 29.19669856 19.78564453 30.65429688 C20.9347943 32.38710822 21.97822653 34.18915509 23 36 C22 39 22 39 19.8125 40.75 C15.63860223 42.60506568 13.0651913 41.72844929 8.8515625 40.2421875 C2.65868381 37.85722774 -3.32398572 35.0248936 -9.3125 32.171875 C-11.8169012 30.86676658 -11.8169012 30.86676658 -14 31 C-12.54312342 33.60499124 -11.08456349 36.20901482 -9.625 38.8125 C-9.2125 39.55048828 -8.8 40.28847656 -8.375 41.04882812 C-7.97539062 41.76103516 -7.57578125 42.47324219 -7.1640625 43.20703125 C-6.79748535 43.8616333 -6.4309082 44.51623535 -6.05322266 45.19067383 C-5.09793201 46.83176306 -4.0533104 48.4200344 -3 50 C-3.125 52.0625 -3.125 52.0625 -4 54 C-6.93995019 56.02755186 -8.27704003 56 -12 56 C-13.39697266 54.50976562 -13.39697266 54.50976562 -14.6640625 52.40625 C-15.14206299 51.63039551 -15.62006348 50.85454102 -16.11254883 50.05517578 C-16.61165771 49.21196777 -17.1107666 48.36875977 -17.625 47.5 C-18.68312792 45.75752953 -19.74173 44.01534693 -20.80078125 42.2734375 C-21.59669678 40.95037598 -21.59669678 40.95037598 -22.40869141 39.60058594 C-23.90784104 37.1506102 -25.45809804 34.74673137 -27.04296875 32.3515625 C-27.5107373 31.63677734 -27.97850586 30.92199219 -28.46044922 30.18554688 C-29.34396162 28.83905993 -30.23715575 27.49886297 -31.14111328 26.16601562 C-32.93195326 23.39054407 -34.01323575 21.55668015 -33.93359375 18.20703125 C-32.46047265 14.72454831 -30.33733565 13.60448829 -27 12 C-24.62817383 12.75341797 -24.62817383 12.75341797 -22 14 C-21.14623779 14.37785645 -20.29247559 14.75571289 -19.4128418 15.14501953 C-18.51734619 15.55349121 -17.62185059 15.96196289 -16.69921875 16.3828125 C-15.72275391 16.82753906 -14.74628906 17.27226563 -13.74023438 17.73046875 C-12.73283203 18.19066406 -11.72542969 18.65085937 -10.6875 19.125 C-9.66076172 19.59292969 -8.63402344 20.06085938 -7.57617188 20.54296875 C-5.05031299 21.69429047 -2.52494106 22.84666716 0 24 C0.495 23.505 0.495 23.505 1 23 C0.63124756 22.44014404 0.26249512 21.88028809 -0.11743164 21.3034668 C-1.77651411 18.77165286 -3.41961065 16.22984832 -5.0625 13.6875 C-5.64322266 12.80642578 -6.22394531 11.92535156 -6.82226562 11.01757812 C-7.36689453 10.17001953 -7.91152344 9.32246094 -8.47265625 8.44921875 C-8.98062744 7.66893311 -9.48859863 6.88864746 -10.01196289 6.0847168 C-11 4 -11 4 -10 1 C-6.33724189 -1.03486561 -3.90423794 -1.57080127 0 0 Z " fill="#43371C" transform="translate(161,59)"/>
<path d="M0 0 C3.22425684 1.09634598 4.51962111 1.93061451 6.39379883 4.81396484 C6.43601056 11.13910378 4.70167027 17.54892603 3.33129883 23.68896484 C2.9626356 25.35241414 2.59663156 27.01645563 2.23364258 28.68115234 C2.0724292 29.40415527 1.91121582 30.1271582 1.74511719 30.87207031 C1.30478618 32.97707478 1.30478618 32.97707478 1.39379883 35.81396484 C2.19043945 35.06630859 2.98708008 34.31865234 3.80786133 33.54833984 C4.8779688 32.55332763 5.9482929 31.55854836 7.01879883 30.56396484 C7.8019043 29.82726562 7.8019043 29.82726562 8.60083008 29.07568359 C12.00734216 25.92150574 15.46579243 23.29108599 19.39379883 20.81396484 C24.11205997 24.20143438 24.11205997 24.20143438 25.26879883 26.71630859 C25.39379883 28.81396484 25.39379883 28.81396484 24.02270508 30.70849609 C23.34079102 31.34142578 22.65887695 31.97435547 21.95629883 32.62646484 C21.21250977 33.32513672 20.4687207 34.02380859 19.70239258 34.74365234 C16.99843318 37.16852287 14.2921767 39.58639038 11.53833008 41.95458984 C8.23898787 44.8152217 5.01866133 47.76259556 1.78833008 50.70068359 C-5.13854868 56.81396484 -5.13854868 56.81396484 -7.73120117 56.81396484 C-10.27892314 55.4551798 -11.25257467 54.3858552 -12.60620117 51.81396484 C-13.08078139 45.71560908 -11.68874746 40.44766891 -10.10620117 34.62646484 C-9.63312496 32.86329701 -9.16421001 31.09900612 -8.69995117 29.33349609 C-8.49047852 28.56110596 -8.28100586 27.78871582 -8.06518555 26.99291992 C-7.46878718 24.53274244 -7.46878718 24.53274244 -7.60620117 20.81396484 C-9.52391774 22.56282587 -11.440398 24.31300985 -13.35620117 26.06396484 C-13.8950293 26.55509766 -14.43385742 27.04623047 -14.98901367 27.55224609 C-15.78178711 28.27734375 -15.78178711 28.27734375 -16.59057617 29.01708984 C-17.1087793 29.49082031 -17.62698242 29.96455078 -18.16088867 30.45263672 C-19.43064581 31.64861067 -20.64116513 32.90682888 -21.84057617 34.17333984 C-23.60620117 35.81396484 -23.60620117 35.81396484 -26.10620117 35.81396484 C-29.02211699 34.64759851 -30.55869587 33.16480426 -32.60620117 30.81396484 C-31.16334375 27.40220822 -29.42280888 25.5654776 -26.60620117 23.18896484 C-22.92814996 20.00096145 -19.49079331 16.7006425 -16.11791992 13.18896484 C-14.92779297 11.95847412 -14.92779297 11.95847412 -13.71362305 10.703125 C-12.11029373 9.03735772 -10.51891027 7.36000287 -8.94018555 5.67089844 C-8.19446289 4.90084473 -7.44874023 4.13079102 -6.68041992 3.33740234 C-6.0161499 2.63534668 -5.35187988 1.93329102 -4.66748047 1.20996094 C-2.60620117 -0.18603516 -2.60620117 -0.18603516 0 0 Z " fill="#44361C" transform="translate(391.606201171875,89.18603515625)"/>
<path d="M0 0 C2.98040329 1.16878561 5.47341613 2.57270539 8.1875 4.25 C7.29950113 20.75453073 4.683401 37.1093507 1.1875 53.25 C-2.50276484 52.61738317 -5.23975897 51.67909641 -8.8125 50.25 C-8.8125 46.62 -8.8125 42.99 -8.8125 39.25 C-13.4325 36.94 -18.0525 34.63 -22.8125 32.25 C-25.7825 34.725 -25.7825 34.725 -28.8125 37.25 C-31.92561963 37.34156234 -32.75962411 36.29846957 -35.0625 34.1875 C-35.92875 33.2284375 -35.92875 33.2284375 -36.8125 32.25 C-35.20768992 27.99420618 -31.99091288 25.39107954 -28.6875 22.4375 C-28.09928467 21.90342529 -27.51106934 21.36935059 -26.9050293 20.8190918 C-23.23522018 17.49633817 -19.5452386 14.19510792 -15.7734375 10.98828125 C-14.25302017 9.64050095 -12.78939741 8.22852139 -11.3515625 6.79296875 C-4.71862094 0.30941777 -4.71862094 0.30941777 0 0 Z " fill="#44361B" transform="translate(353.8125,60.75)"/>
<path d="M0 0 C2.51674957 0.65919283 4.75681059 1.47023158 7.13623047 2.51489258 C7.9815332 2.88211426 8.82683594 3.24933594 9.69775391 3.62768555 C10.59010742 4.02101074 11.48246094 4.41433594 12.40185547 4.81958008 C20.54787505 8.37951214 20.54787505 8.37951214 28.77685547 11.74145508 C29.95103027 12.20720947 29.95103027 12.20720947 31.14892578 12.68237305 C32.62395627 13.26324223 34.10239954 13.83553607 35.58447266 14.39819336 C37.30843338 15.08159949 38.98645302 15.87878649 40.65185547 16.69458008 C41.14685547 18.17958008 41.14685547 18.17958008 41.65185547 19.69458008 C39.21157932 24.07024766 39.21157932 24.07024766 36.65185547 25.69458008 C34.33544922 25.57739258 34.33544922 25.57739258 31.77685547 25.06958008 C29.19095975 24.50533766 29.19095975 24.50533766 26.65185547 24.69458008 C24.31040369 26.55144568 22.75879888 28.48220506 21.02685547 30.90942383 C20.57310547 31.49852539 20.11935547 32.08762695 19.65185547 32.69458008 C18.99185547 32.69458008 18.33185547 32.69458008 17.65185547 32.69458008 C17.88001953 33.22567383 18.10818359 33.75676758 18.34326172 34.30395508 C18.63072266 35.01036133 18.91818359 35.71676758 19.21435547 36.44458008 C19.50439453 37.14067383 19.79443359 37.83676758 20.09326172 38.55395508 C20.74691457 41.05886249 20.55868343 42.28951461 19.65185547 44.69458008 C18.37123062 46.40207987 17.04458437 48.07721748 15.65185547 49.69458008 C12.23132763 48.66082055 11.54861515 47.51568592 9.72216797 44.35083008 C9.06290591 42.97053153 8.41501749 41.58475984 7.77685547 40.19458008 C7.07681009 38.73086363 6.37368328 37.26861694 5.66748047 35.80786133 C5.32523438 35.09839355 4.98298828 34.38892578 4.63037109 33.65795898 C2.97852888 30.34355901 1.04516156 27.22130994 -0.89892578 24.07348633 C-2.55379398 21.35700457 -4.11776331 18.60116404 -5.66064453 15.81958008 C-6.15177734 14.9352832 -6.64291016 14.05098633 -7.14892578 13.13989258 C-9.18459186 8.98899041 -9.18459186 8.98899041 -9.34814453 6.69458008 C-8.09033203 4.73754883 -8.09033203 4.73754883 -6.22314453 2.88208008 C-5.62244141 2.25688477 -5.02173828 1.63168945 -4.40283203 0.98754883 C-2.34814453 -0.30541992 -2.34814453 -0.30541992 0 0 Z " fill="#44371C" transform="translate(102.34814453125,102.305419921875)"/>
<path d="M0 0 C18.48 0 36.96 0 56 0 C56 5.61 56 11.22 56 17 C55 18 55 18 52.79173279 18.12025452 C51.81688431 18.11803391 50.84203583 18.11581329 49.83764648 18.11352539 C48.73658066 18.11344986 47.63551483 18.11337433 46.50108337 18.11329651 C45.3031868 18.10813522 44.10529022 18.10297394 42.87109375 18.09765625 C41.65172623 18.0962413 40.4323587 18.09482635 39.17604065 18.09336853 C35.2631693 18.08774967 31.35035419 18.07519396 27.4375 18.0625 C24.79231853 18.05748743 22.14713617 18.0529241 19.50195312 18.04882812 C13.00128026 18.03777411 6.50064968 18.02049683 0 18 C0 12.06 0 6.12 0 0 Z " fill="#C69440" transform="translate(224,409)"/>
<path d="M0 0 C17.49 0.33 34.98 0.66 53 1 C52.67 7.27 52.34 13.54 52 20 C44.75512951 20.02464113 37.51028318 20.0428318 30.26538086 20.05493164 C27.79857967 20.05997356 25.33178148 20.06680691 22.86499023 20.07543945 C19.32795471 20.08751125 15.79095855 20.09322956 12.25390625 20.09765625 C11.14350479 20.10281754 10.03310333 20.10797882 8.88905334 20.11329651 C7.35757912 20.11340981 7.35757912 20.11340981 5.79516602 20.11352539 C4.43948265 20.11685631 4.43948265 20.11685631 3.05641174 20.12025452 C1 20 1 20 0 19 C0 12.73 0 6.46 0 0 Z " fill="#C59440" transform="translate(226,460)"/>
<path d="M0 0 C-0.33 5.28 -0.66 10.56 -1 16 C-5.6016528 17.53388427 -8.10817076 18.26326262 -12.68359375 18.4140625 C-14.30720825 18.47219116 -14.30720825 18.47219116 -15.96362305 18.53149414 C-17.11000244 18.56235107 -18.25638184 18.59320801 -19.4375 18.625 C-20.61932861 18.66294678 -21.80115723 18.70089355 -23.01879883 18.73999023 C-34.34619182 19.07383908 -45.66902642 19.09758733 -57 19 C-57 13.39 -57 7.78 -57 2 C-50.97194029 1.71124907 -44.94370543 1.42658879 -38.9152832 1.14550781 C-36.86998444 1.04959169 -34.82473527 0.95261146 -32.77954102 0.85449219 C-21.84191024 0.33046979 -10.95242822 -0.13490289 0 0 Z " fill="#C69641" transform="translate(313,382)"/>
<path d="M0 0 C1.10565308 0.08302368 1.10565308 0.08302368 2.23364258 0.16772461 C20.15599848 1.49802383 38.03469494 2.45429129 56 3 C56 8.61 56 14.22 56 20 C43.42967484 20.08929197 30.87195421 20.1631745 18.3125 19.5625 C17.05143433 19.50364624 17.05143433 19.50364624 15.76489258 19.44360352 C2.75453185 18.75453185 2.75453185 18.75453185 1 17 C0.20781735 12.86304617 -0.05161169 8.95831399 -0.02734375 4.74609375 C-0.023396 3.85462646 -0.01944824 2.96315918 -0.01538086 2.04467773 C-0.01030518 1.36993408 -0.00522949 0.69519043 0 0 Z " fill="#C79741" transform="translate(192,381)"/>
<path d="M0 0 C1.2271875 0.01804688 2.454375 0.03609375 3.71875 0.0546875 C4.6365625 0.07789063 5.554375 0.10109375 6.5 0.125 C7.5 3.125 7.5 3.125 6.30078125 5.5703125 C-2.6642277 18.28856815 -18.3261671 23.46861446 -32.5 28.125 C-33.39589844 28.44597656 -34.29179688 28.76695312 -35.21484375 29.09765625 C-41.24496583 31.14580198 -47.14089925 31.93972672 -53.5 31.125 C-54.49 30.465 -55.48 29.805 -56.5 29.125 C-55.68965771 23.04056554 -50.02369275 19.6918742 -45.5 16.125 C-32.90233181 7.28293188 -15.61818003 -0.30034962 0 0 Z " fill="#E3BE5B" transform="translate(127.5,213.875)"/>
<path d="M0 0 C-0.14021805 2.64624284 -0.28689776 5.29184578 -0.4375 7.9375 C-0.47681641 8.69224609 -0.51613281 9.44699219 -0.55664062 10.22460938 C-0.88671875 15.88671875 -0.88671875 15.88671875 -2 17 C-3.39307524 17.21538353 -4.79550763 17.37098932 -6.19921875 17.5 C-7.07175293 17.5820166 -7.94428711 17.6640332 -8.84326172 17.74853516 C-9.78186035 17.83151855 -10.72045898 17.91450195 -11.6875 18 C-12.64414551 18.08685059 -13.60079102 18.17370117 -14.58642578 18.26318359 C-17.3904705 18.51466531 -20.19508548 18.75843834 -23 19 C-24.97033203 19.17402344 -24.97033203 19.17402344 -26.98046875 19.3515625 C-35.34851879 20.02562867 -43.61005987 20.07915038 -52 20 C-52 14.06 -52 8.12 -52 2 C-42.76992989 1.23136575 -33.5690041 0.73359164 -24.3125 0.4375 C-23.07177734 0.39431641 -21.83105469 0.35113281 -20.55273438 0.30664062 C-13.69893452 0.07805969 -6.85758519 -0.06262181 0 0 Z " fill="#C2913E" transform="translate(308,433)"/>
<path d="M0 0 C11.51812877 -0.1558698 22.94162296 0.33031544 34.4375 1 C36.15167111 1.09673762 37.86586379 1.19309392 39.58007812 1.2890625 C43.72037017 1.52096683 47.86010662 1.76062568 52 2 C52 7.94 52 13.88 52 20 C41.1383483 20.1923835 30.49987005 19.43511259 19.6875 18.5 C17.96423418 18.35497509 16.24092702 18.21044053 14.51757812 18.06640625 C10.34455491 17.71657718 6.17214396 17.36015753 2 17 C1.66291092 14.91727106 1.33046884 12.83378963 1 10.75 C0.814375 9.58984375 0.62875 8.4296875 0.4375 7.234375 C0 4 0 4 0 0 Z " fill="#C4923F" transform="translate(196,433)"/>
<path d="M0 0 C0.66 0.33 1.32 0.66 2 1 C-0.8270447 8.76265866 -4.18426841 12.27193085 -11.2890625 16.3671875 C-23.1274507 23.49751353 -29.39451289 36.98656817 -35.07861328 49.05078125 C-35.88716013 50.76128417 -36.72088544 52.45983819 -37.55859375 54.15625 C-43.30264706 66.48494978 -46.43790016 79.91356902 -50 93 C-53.88309399 87.17535902 -55.54948803 80.53766748 -54.6875 73.5625 C-50.83236919 55.32749478 -41.35815951 35.73721196 -30 21 C-29.278125 19.989375 -28.55625 18.97875 -27.8125 17.9375 C-20.70360928 9.70615285 -10.25948588 3.41982863 0 0 Z " fill="#CDA34A" transform="translate(214,197)"/>
<path d="M0 0 C-0.11397544 2.43847451 -0.24070974 4.87513174 -0.375 7.3125 C-0.42140625 8.34793945 -0.42140625 8.34793945 -0.46875 9.40429688 C-0.68124919 13.06990789 -0.91933861 14.87900792 -3 18 C-4.94506836 18.58422852 -4.94506836 18.58422852 -7.33984375 18.87890625 C-8.22921631 18.99451904 -9.11858887 19.11013184 -10.03491211 19.22924805 C-11.47169312 19.39420776 -11.47169312 19.39420776 -12.9375 19.5625 C-13.9179126 19.68471924 -14.8983252 19.80693848 -15.90844727 19.93286133 C-18.93730305 20.30466332 -21.96797392 20.65509221 -25 21 C-26.37865234 21.16097168 -26.37865234 21.16097168 -27.78515625 21.32519531 C-30.33509655 21.62093581 -32.88578104 21.90754843 -35.4375 22.1875 C-36.57916626 22.31330444 -36.57916626 22.31330444 -37.74389648 22.44165039 C-42.18903912 22.90108257 -46.53120412 23.07654064 -51 23 C-51.09691453 16.89438434 -50.73264101 11.05853644 -50 5 C-48.45058716 4.87939209 -48.45058716 4.87939209 -46.86987305 4.75634766 C-42.9872498 4.45260803 -39.10525195 4.14141535 -35.22338867 3.828125 C-33.55264849 3.6942985 -31.8817514 3.5624145 -30.21069336 3.43261719 C-17.55736427 2.44808025 -17.55736427 2.44808025 -5.04223633 0.38037109 C-3 0 -3 0 0 0 Z " fill="#C49340" transform="translate(339,403)"/>
<path d="M0 0 C1.37488287 -0.02749766 2.74993391 -0.0466164 4.125 -0.0625 C5.27355469 -0.07990234 5.27355469 -0.07990234 6.4453125 -0.09765625 C9 0 9 0 11.75561523 0.47485352 C15.00268581 1.00043473 18.18341134 1.28408141 21.46484375 1.5 C22.67720703 1.5825 23.88957031 1.665 25.13867188 1.75 C26.39228516 1.8325 27.64589844 1.915 28.9375 2 C31.42594059 2.16427045 33.91422897 2.33086633 36.40234375 2.5 C37.50054443 2.5721875 38.59874512 2.644375 39.73022461 2.71875 C43.16733007 3.01439291 46.5848753 3.51212504 50 4 C50 9.94 50 15.88 50 22 C33.86079716 21.01164824 17.9411214 19.75480209 2 17 C1.66151348 15.10507994 1.32943089 13.20901534 1 11.3125 C0.814375 10.25675781 0.62875 9.20101563 0.4375 8.11328125 C0.04931926 5.35095938 -0.08259976 2.78257957 0 0 Z " fill="#C3933F" transform="translate(166,404)"/>
<path d="M0 0 C2.54283234 -0.10871967 5.08095088 -0.18762401 7.625 -0.25 C8.33785156 -0.28351563 9.05070312 -0.31703125 9.78515625 -0.3515625 C15.02692597 -0.44774176 17.86063329 0.52733801 22 4 C25.59684684 7.78875177 28.79277583 11.88091797 32 16 C32.58265625 16.74507812 33.1653125 17.49015625 33.765625 18.2578125 C44.98066236 33.78178527 49.10125891 55.39643564 52 74 C52.25136719 75.51787109 52.25136719 75.51787109 52.5078125 77.06640625 C53.64695885 85.97356123 51.82323933 94.30613564 50 103 C47.56825972 99.35238958 47.48555432 96.23662806 47.125 92 C46.50991233 85.84008741 45.37110853 80.68428076 43.0078125 74.93359375 C41.72204293 71.19090791 41.07708378 67.46016364 40.4375 63.5625 C37.57689377 46.38947127 32.91274767 30.86717448 22 17 C21.2575 15.948125 20.515 14.89625 19.75 13.8125 C14.25744519 8.1951144 7.1131794 4.26821756 0 1 C0 0.67 0 0.34 0 0 Z " fill="#CCA14A" transform="translate(266,215)"/>
<path d="M0 0 C40.91298989 2.91298989 40.91298989 2.91298989 43 5 C43.08651611 6.41570123 43.10704904 7.835595 43.09765625 9.25390625 C43.09443359 10.10791016 43.09121094 10.96191406 43.08789062 11.84179688 C43.07532227 13.18854492 43.07532227 13.18854492 43.0625 14.5625 C43.05798828 15.46419922 43.05347656 16.36589844 43.04882812 17.29492188 C43.03700225 19.53001314 43.0205222 21.76497437 43 24 C29.05909429 23.65191247 15.68317066 21.63306801 2 19 C0.48766299 12.53205867 -0.21432579 6.64409958 0 0 Z " fill="#C2923F" transform="translate(175,455)"/>
<path d="M0 0 C-0.11512153 1.72985242 -0.24255677 3.45888751 -0.375 5.1875 C-0.44460938 6.15042969 -0.51421875 7.11335938 -0.5859375 8.10546875 C-1.01630514 11.11398218 -1.51594786 13.34261914 -3 16 C-5.0390625 17.0390625 -5.0390625 17.0390625 -7.625 17.625 C-8.6046875 17.851875 -9.584375 18.07875 -10.59375 18.3125 C-11.7178125 18.539375 -12.841875 18.76625 -14 19 C-14.9590625 19.19722656 -14.9590625 19.19722656 -15.9375 19.3984375 C-27.37664985 21.7302642 -38.3066345 23.19671082 -50 23 C-49.85978195 20.35375716 -49.71310224 17.70815422 -49.5625 15.0625 C-49.52318359 14.30775391 -49.48386719 13.55300781 -49.44335938 12.77539062 C-49.11328125 7.11328125 -49.11328125 7.11328125 -48 6 C-46.35057791 5.73677031 -44.69179459 5.53176998 -43.03125 5.3515625 C-41.99266846 5.23466064 -40.95408691 5.11775879 -39.8840332 4.99731445 C-38.76730225 4.87445068 -37.65057129 4.75158691 -36.5 4.625 C-27.39391873 3.58840354 -18.41855591 2.31318432 -9.42578125 0.55078125 C-6.2114101 0.03398954 -3.24786278 -0.10476977 0 0 Z " fill="#C79642" transform="translate(370,374)"/>
<path d="M0 0 C6.84648001 0.38463371 13.35906199 0.98214833 20.0625 2.4375 C29.29213952 4.41113361 38.6075764 5.18948629 48 6 C48.65723709 10.18665201 49.1205559 14.19941951 49.0625 18.4375 C49.05347656 19.30246094 49.04445312 20.16742188 49.03515625 21.05859375 C49.02355469 21.69925781 49.01195312 22.33992188 49 23 C33.74240198 23.53535432 16.07980097 21.03420042 2 15 C1.34 10.05 0.68 5.1 0 0 Z " fill="#C59541" transform="translate(136,374)"/>
<path d="M0 0 C-0.30722652 2.97979894 -0.62051472 5.95873759 -0.9375 8.9375 C-1.02451172 9.78763672 -1.11152344 10.63777344 -1.20117188 11.51367188 C-1.28818359 12.32255859 -1.37519531 13.13144531 -1.46484375 13.96484375 C-1.543396 14.7137085 -1.62194824 15.46257324 -1.70288086 16.23413086 C-2 18 -2 18 -3 19 C-6.27772116 19.8247365 -9.61417381 20.389131 -12.9375 21 C-13.91992676 21.18079102 -14.90235352 21.36158203 -15.91455078 21.54785156 C-24.97490223 23.13513043 -33.80997785 23.6986878 -43 24 C-43 17.73 -43 11.46 -43 5 C-37.35852396 4.2862118 -31.7169303 3.57354354 -26.07495117 2.86376953 C-24.15527079 2.62192259 -22.23567373 2.37941322 -20.31616211 2.13623047 C-17.55864709 1.7869975 -14.80084211 1.44014029 -12.04296875 1.09375 C-11.18350143 0.9843811 -10.32403412 0.87501221 -9.43852234 0.7623291 C-8.63791885 0.66222534 -7.83731537 0.56212158 -7.01245117 0.45898438 C-5.95655037 0.32574768 -5.95655037 0.32574768 -4.87931824 0.18981934 C-3 0 -3 0 0 0 Z " fill="#C4933F" transform="translate(330,455)"/>
<path d="M0 0 C5.54416783 3.7579715 7.44394208 9.77576833 9 16 C9.33 19.63 9.66 23.26 10 27 C-0.23 27 -10.46 27 -21 27 C-21 9.75975177 -21 9.75975177 -13.875 2.5 C-9.59522966 -0.84098201 -5.21055027 -1.41011592 0 0 Z " fill="#ECBF52" transform="translate(250,254)"/>
<path d="M0 0 C-0.25950035 3.0115698 -0.60926074 6.00274399 -1 9 C-1.165 10.27875 -1.33 11.5575 -1.5 12.875 C-3 16 -3 16 -6.66015625 17.52734375 C-13.28569334 19.54100031 -20.11630777 20.56699646 -26.9375 21.6875 C-28.27679743 21.91409544 -29.61599115 22.14130475 -30.95507812 22.36914062 C-40.65596505 24 -40.65596505 24 -43 24 C-43.18451025 12.47835991 -43.18451025 12.47835991 -42 7 C-36.59351319 5.67209096 -31.27747763 4.74412677 -25.75 4.0625 C-19.63884583 3.2939947 -13.76755198 2.1183785 -7.8046875 0.5859375 C-5.10997221 0.02297469 -2.74248342 -0.11050299 0 0 Z " fill="#C39240" transform="translate(358,425)"/>
<path d="M0 0 C1.11632812 0.25394531 2.23265625 0.50789063 3.3828125 0.76953125 C15.84773914 3.53442472 28.33160887 5.43737907 41 7 C41.65723709 11.18665201 42.1205559 15.19941951 42.0625 19.4375 C42.05347656 20.30246094 42.04445312 21.16742188 42.03515625 22.05859375 C42.02355469 22.69925781 42.01195312 23.33992188 42 24 C28.43690119 23.76761046 14.8799133 21.29330443 2 17 C0.03600274 11.21137651 -0.0956733 6.06421562 0 0 Z " fill="#C1903E" transform="translate(147,424)"/>
<path d="M0 0 C3.67547809 1.76967464 5.5140788 3.31971033 7.875 6.625 C9.39666026 11.18998077 9.83444393 15.24057909 9 20 C7.35731289 23.18107662 5.03609378 25.21399782 2.1875 27.375 C-2.38836778 28.6823908 -6.43375858 28.67633152 -10.75 26.8125 C-14.34143403 23.91940036 -17.67945196 20.54606726 -18.2734375 15.828125 C-18.58146625 8.00893364 -18.58146625 8.00893364 -15.75 4.5 C-10.78354763 -0.0149567 -6.59198904 -0.91555403 0 0 Z " fill="#EDC253" transform="translate(209,51)"/>
<path d="M0 0 C4.18531174 1.72871572 6.23950002 3.83039478 8 8 C8.52937142 12.76434281 8.51887884 14.96224232 6.375 19.25 C2.58655031 23.63662596 -0.81812064 26.04053711 -6.5625 26.9375 C-11.56804929 27.29924558 -14.0148347 25.70157025 -17.75 22.5 C-20.34420102 19.38695878 -20.28885637 15.89620307 -20.203125 11.98828125 C-19.80867714 8.12724359 -18.24469233 6.0576963 -15.3359375 3.5859375 C-10.35637115 0.03477265 -6.05052464 -1.05276815 0 0 Z " fill="#EFC253" transform="translate(425,147)"/>
<path d="M0 0 C9.16851947 5.41861375 12.55328606 13.73421456 15.75 23.5 C16.07097656 24.45132812 16.39195312 25.40265625 16.72265625 26.3828125 C18.07443268 30.59532509 18.89902872 34.04482558 18.75 38.5 C16.41705225 38.54241723 14.08297433 38.54092937 11.75 38.5 C9.91114728 36.66114728 10.22544561 33.60617617 9.9375 31.125 C8.80115373 22.86755042 7.18115283 13.37991116 0.75 7.5 C-4.68753037 4.34623238 -10.01426459 3.32129392 -16.25 4.5 C-25.69056394 8.92526435 -29.63662918 15.69606784 -33.14453125 25.18359375 C-34.50576517 29.26729552 -35.46153537 33.27096245 -36.25 37.5 C-38.23 37.5 -40.21 37.5 -42.25 37.5 C-42.91098914 27.36483326 -39.2923015 19.46283743 -33.25 11.5 C-32.6415625 10.66597656 -32.033125 9.83195313 -31.40625 8.97265625 C-29.04810792 6.26848245 -26.73719119 4.62545635 -23.6875 2.75 C-22.73746094 2.15703125 -21.78742188 1.5640625 -20.80859375 0.953125 C-14.57492985 -2.58721541 -6.59233789 -2.92849452 0 0 Z " fill="#C9A14F" transform="translate(255.25,243.5)"/>
<path d="M0 0 C0.66 0 1.32 0 2 0 C3.15883772 6.68035863 3.34304987 13.35719415 3.5625 20.125 C3.6049585 21.38078857 3.64741699 22.63657715 3.69116211 23.93041992 C4.11355081 37.62108315 4.09043794 51.3036766 4 65 C0.37 65 -3.26 65 -7 65 C-7.18885735 54.81269474 -6.6512139 44.82006321 -5.6875 34.6875 C-5.62097229 33.96820313 -5.55444458 33.24890625 -5.48590088 32.5078125 C-2.7152086 2.7152086 -2.7152086 2.7152086 0 0 Z " fill="#CC9F47" transform="translate(292,292)"/>
<path d="M0 0 C6.93 0 13.86 0 21 0 C20.67 7.59 20.34 15.18 20 23 C13.07 23 6.14 23 -1 23 C-1.020625 20.504375 -1.04125 18.00875 -1.0625 15.4375 C-1.071604 14.66591553 -1.08070801 13.89433105 -1.09008789 13.09936523 C-1.09258545 12.46716064 -1.09508301 11.83495605 -1.09765625 11.18359375 C-1.10289307 10.54993896 -1.10812988 9.91628418 -1.11352539 9.26342773 C-0.95773291 6.15729419 -0.4398258 3.07878063 0 0 Z " fill="#CD9D44" transform="translate(234,335)"/>
<path d="M0 0 C0 5.54946712 -5.26067897 9.23766776 -9 13 C-16.63232348 20.22292682 -28.39249947 27.56099799 -39 29 C-38.85656032 27.31229485 -38.71011431 25.62484514 -38.5625 23.9375 C-38.48128906 22.99777344 -38.40007812 22.05804688 -38.31640625 21.08984375 C-37.97034525 17.71040854 -37.49916556 14.35992951 -37 11 C-35.75347656 10.70867187 -34.50695312 10.41734375 -33.22265625 10.1171875 C-21.86242071 7.40270564 -10.92820336 4.11930982 0 0 Z " fill="#C19242" transform="translate(375,442)"/>
<path d="M0 0 C0.98842896 0.33994995 0.98842896 0.33994995 1.99682617 0.68676758 C19.26008703 6.693781 19.26008703 6.693781 37 11 C38.2982126 16.76081841 39.25706972 22.08739655 39 28 C23.96838509 26.27811222 11.69272209 15.80717422 2.16796875 4.7890625 C0 2 0 2 0 0 Z " fill="#C29240" transform="translate(129,442)"/>
<path d="M0 0 C6.09873687 0.73590861 11.97384403 2.10725381 17.9375 3.5625 C18.90751953 3.79646484 19.87753906 4.03042969 20.87695312 4.27148438 C23.25201551 4.84477529 25.62632053 5.42101488 28 6 C28.58736137 10.36589865 29.13144005 14.58783657 29.0625 19 C29.05347656 19.763125 29.04445312 20.52625 29.03515625 21.3125 C29.02355469 21.869375 29.01195312 22.42625 29 23 C24.32468543 22.03763598 19.66087683 21.02994936 15 20 C13.91976562 19.77183594 12.83953125 19.54367187 11.7265625 19.30859375 C10.76492187 19.08300781 9.80328125 18.85742188 8.8125 18.625 C7.52279297 18.33496094 7.52279297 18.33496094 6.20703125 18.0390625 C3.13936244 16.59481488 2.36695302 15.07349499 1 12 C0.48828125 8.88671875 0.48828125 8.88671875 0.3125 5.6875 C0.24675781 4.61886719 0.18101562 3.55023438 0.11328125 2.44921875 C0.07589844 1.64097656 0.03851563 0.83273437 0 0 Z " fill="#C29240" transform="translate(130,396)"/>
<path d="M0 0 C6.27 0 12.54 0 19 0 C18.85987863 3.64613696 18.71318602 7.29179789 18.5625 10.9375 C18.52318359 11.97841797 18.48386719 13.01933594 18.44335938 14.09179688 C18.40146484 15.08115234 18.35957031 16.07050781 18.31640625 17.08984375 C18.27974854 18.00628662 18.24309082 18.92272949 18.20532227 19.86694336 C18 22 18 22 17 23 C15.65732587 23.08631874 14.31025678 23.10706473 12.96484375 23.09765625 C12.15595703 23.09443359 11.34707031 23.09121094 10.51367188 23.08789062 C9.66353516 23.07951172 8.81339844 23.07113281 7.9375 23.0625 C7.08349609 23.05798828 6.22949219 23.05347656 5.34960938 23.04882812 C3.23304337 23.03700373 1.11651315 23.01906769 -1 23 C-1.02894547 19.54168414 -1.04678 16.08339928 -1.0625 12.625 C-1.07087891 11.64015625 -1.07925781 10.6553125 -1.08789062 9.640625 C-1.09111328 8.69960938 -1.09433594 7.75859375 -1.09765625 6.7890625 C-1.10289307 5.91975098 -1.10812988 5.05043945 -1.11352539 4.15478516 C-1 2 -1 2 0 0 Z " fill="#CA9D45" transform="translate(261,335)"/>
<path d="M0 0 C6.6 0 13.2 0 20 0 C20.10197211 7.74988014 19.72631977 15.28285249 19 23 C12.73 22.67 6.46 22.34 0 22 C0 14.74 0 7.48 0 0 Z " fill="#CC9F46" transform="translate(208,335)"/>
<path d="M0 0 C-0.23591558 1.9210269 -0.47323088 3.84189562 -0.71875 5.76171875 C-0.97455577 7.79750634 -1.20730809 9.83615734 -1.4375 11.875 C-2 15 -2 15 -4 17 C-5.77007051 17.57404771 -7.56772696 18.06459183 -9.375 18.5078125 C-10.44234375 18.77207031 -11.5096875 19.03632813 -12.609375 19.30859375 C-13.72828125 19.57800781 -14.8471875 19.84742188 -16 20.125 C-17.67835938 20.54072266 -17.67835938 20.54072266 -19.390625 20.96484375 C-27.6916564 23 -27.6916564 23 -30 23 C-29.88265487 21.66597118 -29.75557824 20.3327986 -29.625 19 C-29.55539062 18.2575 -29.48578125 17.515 -29.4140625 16.75 C-28.86265243 13.0878048 -27.93392283 9.58383395 -27 6 C-26.37955811 5.85377197 -25.75911621 5.70754395 -25.11987305 5.55688477 C-22.30874516 4.89350805 -19.49811926 4.22802824 -16.6875 3.5625 C-15.22280273 3.21735352 -15.22280273 3.21735352 -13.72851562 2.86523438 C-12.32182617 2.53168945 -12.32182617 2.53168945 -10.88671875 2.19140625 C-10.02264404 1.98717041 -9.15856934 1.78293457 -8.26831055 1.57250977 C-2.03795309 0 -2.03795309 0 0 0 Z " fill="#C39442" transform="translate(375,396)"/>
<path d="M0 0 C8.39788869 7.18831624 7.59388624 22.5477429 8.52734375 32.9453125 C8.95653289 37.70739841 9.52756968 42.44410471 10.125 47.1875 C10.82270854 52.82910222 11.20675681 58.31418786 11 64 C8.03 64 5.06 64 2 64 C0.5153214 42.74066601 -0.31086319 21.31139895 0 0 Z " fill="#CAA14A" transform="translate(301,292)"/>
<path d="M0 0 C6.93 0 13.86 0 21 0 C20.67 6.27 20.34 12.54 20 19 C13.07 19 6.14 19 -1 19 C-0.67 12.73 -0.34 6.46 0 0 Z " fill="#CEA146" transform="translate(236,310)"/>
<path d="M0 0 C5.94 0 11.88 0 18 0 C18 7.26 18 14.52 18 22 C12.06 21.67 6.12 21.34 0 21 C0 14.07 0 7.14 0 0 Z " fill="#D0A046" transform="translate(184,335)"/>
<path d="M0 0 C6.6 0 13.2 0 20 0 C19.67 6.27 19.34 12.54 19 19 C12.4 19 5.8 19 -1 19 C-1.020625 16.23625 -1.04125 13.4725 -1.0625 10.625 C-1.071604 9.75568848 -1.08070801 8.88637695 -1.09008789 7.99072266 C-1.11111111 2.22222222 -1.11111111 2.22222222 0 0 Z " fill="#CE9F46" transform="translate(210,310)"/>
<path d="M0 0 C3.1150245 1.63401089 4.38226485 4.16677612 6.23828125 7.10546875 C6.9446875 8.21019531 7.65109375 9.31492187 8.37890625 10.453125 C8.91 11.30777344 9.44109375 12.16242188 9.98828125 13.04296875 C8.47750676 17.4342866 5.07165849 19.36033667 1.36328125 21.79296875 C0.75226563 22.20417969 0.14125 22.61539062 -0.48828125 23.0390625 C-1.99067203 24.04848131 -3.50048784 25.04683345 -5.01171875 26.04296875 C-8.20421352 23.0764913 -10.47101745 19.99333239 -12.76171875 16.29296875 C-13.3753125 15.308125 -13.98890625 14.32328125 -14.62109375 13.30859375 C-15.08 12.5609375 -15.53890625 11.81328125 -16.01171875 11.04296875 C-6.06116834 0.12946185 -6.06116834 0.12946185 0 0 Z " fill="#CDA148" transform="translate(357.01171875,325.95703125)"/>
<path d="M0 0 C6.6 0 13.2 0 20 0 C19.67 6.27 19.34 12.54 19 19 C12.73 19 6.46 19 0 19 C0 12.73 0 6.46 0 0 Z " fill="#CD9F46" transform="translate(184,310)"/>
<path d="M0 0 C6.27 0 12.54 0 19 0 C18.67 6.27 18.34 12.54 18 19 C11.73 19 5.46 19 -1 19 C-1.09254786 12.42910195 -0.736663 6.62996702 0 0 Z " fill="#CDA046" transform="translate(263,310)"/>
<path d="M0 0 C3.88701415 1.29567138 4.44755274 2.8637199 6.5625 6.3125 C7.46162109 7.76076172 7.46162109 7.76076172 8.37890625 9.23828125 C9.67318966 11.44324118 10.85658251 13.71316501 12 16 C7.05 19.3 2.1 22.6 -3 26 C-6.31005892 22.68994108 -8.12787141 20.42187224 -10.3125 16.4375 C-10.84488281 15.48746094 -11.37726563 14.53742188 -11.92578125 13.55859375 C-13 11 -13 11 -12 8 C-9.3828125 5.921875 -9.3828125 5.921875 -6.125 3.75 C-4.52011719 2.65945313 -4.52011719 2.65945313 -2.8828125 1.546875 C-1.93148438 1.03640625 -0.98015625 0.5259375 0 0 Z " fill="#CDA147" transform="translate(349,275)"/>
<path d="M0 0 C1.62677091 2.13770618 3.13979644 4.2675534 4.625 6.5 C5.25535156 7.43005859 5.25535156 7.43005859 5.8984375 8.37890625 C6.93837167 9.91517264 7.96997056 11.45707524 9 13 C7.4696315 17.21088973 4.71720859 18.88931746 1.0625 21.3125 C0.00160156 22.03050781 -1.05929687 22.74851562 -2.15234375 23.48828125 C-3.56193359 24.23658203 -3.56193359 24.23658203 -5 25 C-9.0364974 23.65450087 -9.86986428 21.64577995 -12.1875 18.125 C-12.90292969 17.05507813 -13.61835938 15.98515625 -14.35546875 14.8828125 C-16 12 -16 12 -16 9 C-13.73469504 7.28771335 -11.53492555 5.7909964 -9.125 4.3125 C-8.47402344 3.89677734 -7.82304687 3.48105469 -7.15234375 3.05273438 C-2.29002463 0 -2.29002463 0 0 0 Z " fill="#CDA048" transform="translate(345,307)"/>
<path d="M0 0 C1.2065625 0.47050781 2.413125 0.94101562 3.65625 1.42578125 C5.27082309 2.05471379 6.885407 2.68361856 8.5 3.3125 C9.29148437 3.62123047 10.08296875 3.92996094 10.8984375 4.24804688 C15.91883391 6.20270941 20.95172657 8.11847607 26 10 C26.66 14.62 27.32 19.24 28 24 C19.14588828 23.64583553 10.33122985 19.88748657 3 15 C2.29644885 12.42320771 1.75482468 9.99510903 1.3125 7.375 C1.18294922 6.66859375 1.05339844 5.9621875 0.91992188 5.234375 C0.60198437 3.49160646 0.29950171 1.74603126 0 0 Z " fill="#C59643" transform="translate(102,362)"/>
<path d="M0 0 C2.40983345 2.07815745 3.93172771 4.31343164 5.62890625 7.00390625 C6.25410156 7.97199219 6.87929688 8.94007813 7.5234375 9.9375 C8.81640625 12.56640625 8.81640625 12.56640625 7.81640625 15.56640625 C5.19921875 17.609375 5.19921875 17.609375 1.94140625 19.75390625 C0.87148438 20.46933594 -0.1984375 21.18476563 -1.30078125 21.921875 C-4.18359375 23.56640625 -4.18359375 23.56640625 -7.18359375 23.56640625 C-9.2265625 21.08203125 -9.2265625 21.08203125 -11.37109375 17.81640625 C-12.08652344 16.7490625 -12.80195313 15.68171875 -13.5390625 14.58203125 C-15.18359375 11.56640625 -15.18359375 11.56640625 -15.18359375 7.56640625 C-13.10323501 5.86484115 -11.22055419 4.54791169 -8.93359375 3.19140625 C-8.05380859 2.62099609 -8.05380859 2.62099609 -7.15625 2.0390625 C-2.87163818 -0.57021796 -2.87163818 -0.57021796 0 0 Z " fill="#CCA047" transform="translate(364.18359375,295.43359375)"/>
<path d="M0 0 C6.93 0 13.86 0 21 0 C20.67 5.28 20.34 10.56 20 16 C13.07 16 6.14 16 -1 16 C-0.67 10.72 -0.34 5.44 0 0 Z " fill="#CEA046" transform="translate(211,288)"/>
<path d="M0 0 C-1.02467671 9.90520821 -1.02467671 9.90520821 -3 14 C-5.39561464 15.85404289 -8.00081746 17.06354342 -10.75 18.3125 C-11.45382812 18.65861328 -12.15765625 19.00472656 -12.8828125 19.36132812 C-16.90749089 21.28015713 -20.51980949 22.5139416 -25 23 C-24.88544319 21.08268082 -24.75793742 19.1661325 -24.625 17.25 C-24.55539062 16.18265625 -24.48578125 15.1153125 -24.4140625 14.015625 C-23.7720687 9.33997202 -23.7720687 9.33997202 -22 7 C-19.42578125 5.83984375 -19.42578125 5.83984375 -16.3125 4.9375 C-12.75614253 3.85865295 -9.31895796 2.79560203 -5.9375 1.25 C-3 0 -3 0 0 0 Z " fill="#C69844" transform="translate(402,363)"/>
<path d="M0 0 C6.93 0 13.86 0 21 0 C20.34 5.28 19.68 10.56 19 16 C12.4 16 5.8 16 -1 16 C-1 7 -1 7 0 0 Z " fill="#CDA147" transform="translate(238,288)"/>
<path d="M0 0 C7.26 0 14.52 0 22 0 C20.125 11.5 20.125 11.5 19 16 C12.73 16 6.46 16 0 16 C0 10.72 0 5.44 0 0 Z " fill="#CB9E46" transform="translate(264,288)"/>
<path d="M0 0 C2.56095029 3.14551503 4.98677927 6.32124493 7.25 9.6875 C7.77078125 10.45449219 8.2915625 11.22148437 8.828125 12.01171875 C10 14 10 14 10 16 C7.9055032 17.63429751 5.82217909 19.14167234 3.625 20.625 C3.02171875 21.04523438 2.4184375 21.46546875 1.796875 21.8984375 C-2.73462865 25 -2.73462865 25 -5 25 C-6.6366755 22.73701547 -8.14565511 20.48732888 -9.625 18.125 C-10.04523438 17.47402344 -10.46546875 16.82304687 -10.8984375 16.15234375 C-14 11.26838981 -14 11.26838981 -14 9 C-11.69404616 7.37053772 -9.39803293 5.8564103 -7 4.375 C-6.33226562 3.95476562 -5.66453125 3.53453125 -4.9765625 3.1015625 C-3.32168546 2.06135408 -1.66133712 1.02985949 0 0 Z " fill="#CDA047" transform="translate(381,282)"/>
<path d="M0 0 C3.23387892 2.95267206 5.22245249 5.87922748 7.25 9.75 C7.77078125 10.73484375 8.2915625 11.7196875 8.828125 12.734375 C9.21484375 13.48203125 9.6015625 14.2296875 10 15 C8.43902526 16.1063219 6.87614673 17.20995785 5.3125 18.3125 C4.44238281 18.92738281 3.57226562 19.54226563 2.67578125 20.17578125 C0.16749048 21.88581306 -2.38102199 23.46636423 -5 25 C-6.50554634 22.71180854 -8.00457043 20.41978831 -9.5 18.125 C-9.92925781 17.47402344 -10.35851562 16.82304687 -10.80078125 16.15234375 C-14 11.2265625 -14 11.2265625 -14 9 C-11.69404616 7.37053772 -9.39803293 5.8564103 -7 4.375 C-6.33226562 3.95476562 -5.66453125 3.53453125 -4.9765625 3.1015625 C-3.32168546 2.06135408 -1.66133712 1.02985949 0 0 Z " fill="#CDA149" transform="translate(375,313)"/>
<path d="M0 0 C-0.25 2.375 -0.25 2.375 -1 6 C-1.13019531 6.78503906 -1.26039063 7.57007813 -1.39453125 8.37890625 C-2.36595152 12.09984353 -3.36682528 14.92002018 -6.69091797 17.11816406 C-12.4797044 20.15653224 -18.64129857 22.48681898 -25 24 C-24.79868966 21.55723426 -24.5654268 19.12499812 -24.3125 16.6875 C-24.25900391 15.99720703 -24.20550781 15.30691406 -24.15039062 14.59570312 C-23.78242257 11.2839906 -23.50266624 9.43248265 -20.9296875 7.21875 C-17.24317947 5.68516266 -13.56172842 4.18665159 -9.8125 2.8125 C-9.08869141 2.53986328 -8.36488281 2.26722656 -7.61914062 1.98632812 C-2.2675047 0 -2.2675047 0 0 0 Z " fill="#C09241" transform="translate(389,414)"/>
<path d="M0 0 C0.9178125 0.39832031 1.835625 0.79664063 2.78125 1.20703125 C3.37260742 1.46202393 3.96396484 1.7170166 4.57324219 1.97973633 C5.8620817 2.53678544 7.14919166 3.09785267 8.43457031 3.6628418 C11.84008447 5.1440072 15.16689622 6.35700566 18.75 7.3125 C22 9 22 9 22.921875 10.96875 C23.98450115 15.27669384 24.22726642 19.56830489 24 24 C17.4348585 23.30893247 10.6605818 21.31050525 5.625 16.9375 C2.77776741 11.79057955 0 5.94981799 0 0 Z " fill="#C19341" transform="translate(116,413)"/>
<path d="M0 0 C0 1.65 0 3.3 0 5 C-2.0610374 5.89919323 -4.12393829 6.79411505 -6.1875 7.6875 C-6.82244385 7.96295654 -7.4573877 8.23841309 -8.11157227 8.5222168 C-12.17611131 10.2686314 -16.26788842 11.82927996 -20.4375 13.3125 C-26.39901219 15.53618062 -31.59176771 18.57192324 -36.88842773 22.05395508 C-40.40257805 24.30627316 -42.78995094 25.53422971 -47 25 C-46.86328125 22.74609375 -46.86328125 22.74609375 -46 20 C-43.48046875 17.97265625 -43.48046875 17.97265625 -40.1875 16.0625 C-39.60073486 15.72041504 -39.01396973 15.37833008 -38.40942383 15.02587891 C-36.61802078 13.99444313 -34.8131193 12.99268282 -33 12 C-32.0203125 11.45988281 -31.040625 10.91976562 -30.03125 10.36328125 C-24.35808611 7.39422158 -18.53259088 4.92165949 -12.5625 2.625 C-11.88791748 2.36187012 -11.21333496 2.09874023 -10.51831055 1.82763672 C-6.89388576 0.47941417 -3.87306863 -0.31342752 0 0 Z " fill="#473618" transform="translate(128,216)"/>
<path d="M0 0 C1.26328125 0.02707031 2.5265625 0.05414063 3.828125 0.08203125 C4.79234375 0.11683594 5.7565625 0.15164063 6.75 0.1875 C6.77712153 2.104088 6.79645097 4.0207873 6.8125 5.9375 C6.82410156 7.00484375 6.83570313 8.0721875 6.84765625 9.171875 C6.75 12.1875 6.75 12.1875 5.75 16.1875 C-0.52 16.1875 -6.79 16.1875 -13.25 16.1875 C-11.77920354 3.80829646 -11.77920354 3.80829646 -9.625 1.28125 C-6.32186846 -0.239929 -3.61774183 -0.10049283 0 0 Z " fill="#CDA047" transform="translate(198.25,287.8125)"/>
<path d="M0 0 C2.48865892 4.97731785 0.97692839 11.79109431 -0.3046875 17.0078125 C-1.29395294 19.84222471 -2.48387543 21.37191939 -5 23 C-6.8671875 22.96484375 -6.8671875 22.96484375 -9 22 C-11.140625 19.27734375 -11.140625 19.27734375 -13.25 15.9375 C-13.95640625 14.83277344 -14.6628125 13.72804688 -15.390625 12.58984375 C-15.92171875 11.73519531 -16.4528125 10.88054687 -17 10 C-13.96792383 6.86078332 -10.99104053 4.07297245 -7.375 1.625 C-6.61960937 1.10164063 -5.86421875 0.57828125 -5.0859375 0.0390625 C-3 -1 -3 -1 0 0 Z " fill="#CEA049" transform="translate(396,302)"/>
<path d="M0 0 C2.94831641 2.77488604 5.1937951 5.55119004 7.3125 9 C7.84488281 9.845625 8.37726563 10.69125 8.92578125 11.5625 C10 14 10 14 10.0703125 16.04296875 C8.37193547 19.14839537 5.53041078 20.57619284 2.5625 22.3125 C1.96373047 22.68439453 1.36496094 23.05628906 0.74804688 23.43945312 C-0.79294656 24.36611995 -2.39377275 25.19166457 -4 26 C-4.66 25.67 -5.32 25.34 -6 25 C-6.86598345 16.51336219 -3.79016169 7.58032339 0 0 Z " fill="#CDA04A" transform="translate(331,287)"/>
<path d="M0 0 C-0.69991654 2.18910067 -1.41777323 4.36914451 -2.1640625 6.54296875 C-2.67154395 8.03458477 -3.15309208 9.5358223 -3.5859375 11.05078125 C-4.47269026 13.73983019 -5.36500087 15.61872915 -7.828125 17.09765625 C-11.46118642 18.54415293 -14.02588772 19 -18 19 C-17.57125231 6.95219001 -17.57125231 6.95219001 -13 2 C-8.83083462 -0.54782329 -4.74277647 -0.16077208 0 0 Z " fill="#D4A94F" transform="translate(253,166)"/>
<path d="M0 0 C-0.22765923 2.46231429 -0.48089483 4.91717279 -0.75 7.375 C-0.8428125 8.42300781 -0.8428125 8.42300781 -0.9375 9.4921875 C-1.52850507 14.61423142 -1.52850507 14.61423142 -3.71875 16.40625 C-6.3887563 17.10118315 -9.02753175 17.67125529 -11.75 18.125 C-12.73484375 18.29257813 -13.7196875 18.46015625 -14.734375 18.6328125 C-15.48203125 18.75398438 -16.2296875 18.87515625 -17 19 C-16.37092817 13.21253913 -15.51607488 7.29648447 -13 2 C-8.79085078 -0.48722454 -4.79111105 -0.03406003 0 0 Z " fill="#D5AD4D" transform="translate(229,172)"/>
<path d="M0 0 C3.85674376 1.4756237 5.21823735 3.47006893 7.25 7 C7.77078125 7.886875 8.2915625 8.77375 8.828125 9.6875 C10 12 10 12 10 14 C7.93827387 14.33808686 5.8755797 14.67027361 3.8125 15 C2.08966797 15.2784375 2.08966797 15.2784375 0.33203125 15.5625 C-5.26974644 16.29802063 -5.26974644 16.29802063 -8 16 C-12 11.02702703 -12 11.02702703 -12 8 C-10.23596271 6.74163402 -8.41220501 5.5661735 -6.5625 4.4375 C-3.09563564 2.46466077 -3.09563564 2.46466077 0 0 Z " fill="#CFA24B" transform="translate(336,339)"/>
<path d="M0 0 C3.14822808 2.93927489 5.45457845 5.9856778 7.75 9.625 C8.36359375 10.58664062 8.9771875 11.54828125 9.609375 12.5390625 C11 15 11 15 11 17 C9.11947058 18.45194365 7.16863151 19.81364605 5.1875 21.125 C3.56908203 22.21167969 3.56908203 22.21167969 1.91796875 23.3203125 C-1 25 -1 25 -4 25 C-3.91237 22.14447056 -3.80540993 19.29181011 -3.6875 16.4375 C-3.66494141 15.63763672 -3.64238281 14.83777344 -3.61914062 14.01367188 C-3.37907972 8.66686073 -2.3992119 4.79199159 0 0 Z " fill="#C99E49" transform="translate(324,319)"/>
<path d="M0 0 C4 2 4 2 7 4 C7.43359375 7.15234375 7.43359375 7.15234375 7.4375 10.9375 C7.45683594 12.18402344 7.47617187 13.43054688 7.49609375 14.71484375 C7 18 7 18 5.09765625 19.94140625 C3 21 3 21 1 21 C-0.65625 18.734375 -0.65625 18.734375 -2.5 15.75 C-3.1084375 14.77546875 -3.716875 13.8009375 -4.34375 12.796875 C-5.65460322 10.58326437 -6.84948636 8.30102728 -8 6 C-5.36 4.02 -2.72 2.04 0 0 Z " fill="#C79F49" transform="translate(393,274)"/>
<path d="M0 0 C0.72832031 0.30035156 1.45664063 0.60070312 2.20703125 0.91015625 C4.90510963 2.01283177 4.90510963 2.01283177 7.38671875 2.68359375 C9.96741183 3.52921984 11.85352435 4.31959177 14 6 C15.94850247 10.88613024 16 15.796265 16 21 C14.56068883 20.54738642 13.12361001 20.08767021 11.6875 19.625 C10.88699219 19.36976563 10.08648437 19.11453125 9.26171875 18.8515625 C7 18 7 18 4 16 C3.1374405 13.2709656 2.43008056 10.65771705 1.8125 7.875 C1.63525391 7.12089844 1.45800781 6.36679687 1.27539062 5.58984375 C0.83962818 3.72902033 0.41841214 1.86480133 0 0 Z " fill="#C29344" transform="translate(108,387)"/>
<path d="M0 0 C1.89492187 0.01353516 1.89492187 0.01353516 3.828125 0.02734375 C4.79234375 0.03894531 5.7565625 0.05054688 6.75 0.0625 C7.75 3.0625 7.75 3.0625 6.8125 5.25 C6.461875 5.848125 6.11125 6.44625 5.75 7.0625 C5.255 5.5775 5.255 5.5775 4.75 4.0625 C5.08 3.4025 5.41 2.7425 5.75 2.0625 C-9.21041096 3.54829424 -21.7597109 8.72094145 -34.45703125 16.5234375 C-37.25 18.0625 -37.25 18.0625 -40.25 18.0625 C-39.40141698 14.53573012 -38.90960627 12.55804747 -35.95703125 10.33984375 C-27.88902094 6.60525868 -19.75701529 3.62891928 -11.25 1.0625 C-10.59515625 0.85367188 -9.9403125 0.64484375 -9.265625 0.4296875 C-6.17343146 -0.13361908 -3.13769507 -0.02905273 0 0 Z " fill="#DABE65" transform="translate(127.25,213.9375)"/>
<path d="M0 0 C4.44526118 1.3482624 8.33237655 3.08917094 12.375 5.375 C13.43460938 5.96023438 14.49421875 6.54546875 15.5859375 7.1484375 C16.38257813 7.75945312 17.17921875 8.37046875 18 9 C18 10.32 18 11.64 18 13 C14.25837091 12.42385534 11.55701579 11.37098904 8.3125 9.4375 C5.34778023 7.53684034 5.34778023 7.53684034 2 7 C-0.64 12.28 -3.28 17.56 -6 23 C-6.99 23 -7.98 23 -9 23 C-8.47729394 17.4099491 -6.96866857 13.14165179 -4.5 8.125 C-4.17902344 7.44953125 -3.85804688 6.7740625 -3.52734375 6.078125 C-1.17353403 1.17353403 -1.17353403 1.17353403 0 0 Z " fill="#483615" transform="translate(132,320)"/>
<path d="M0 0 C-0.45888287 2.47015671 -0.93959775 4.93194769 -1.45703125 7.390625 C-1.8702859 9.37662575 -2.22900992 11.37405954 -2.5625 13.375 C-4.81591714 17.48993565 -8.65299702 18.62128637 -13 20 C-13.66 20 -14.32 20 -15 20 C-14.9143577 14.76264389 -14.59478913 10.01371832 -13 5 C-9.29779886 1.89084197 -4.89607722 0 0 0 Z " fill="#C39646" transform="translate(396,388)"/>
<path d="M0 0 C6.79272917 1.01361437 14.09575894 6.42270834 19 11 C19 11.66 19 12.32 19 13 C14.43793559 13.45866357 12.40457381 12.23888835 8.8125 9.5 C5.72483642 6.85445497 5.72483642 6.85445497 2 6 C-0.31 11.94 -2.62 17.88 -5 24 C-5.99 24 -6.98 24 -8 24 C-7.48084146 18.17893484 -6.27693129 13.42725086 -4 8.0625 C-3.72671875 7.39154297 -3.4534375 6.72058594 -3.171875 6.02929688 C-1.16528614 1.16528614 -1.16528614 1.16528614 0 0 Z " fill="#453513" transform="translate(126,299)"/>
<path d="M0 0 C2.56269497 1.04109483 4.02610343 2.02610343 6 4 C6.3125 6.4375 6.3125 6.4375 6 9 C3.75485803 11.89180098 1.46855826 12.71196799 -2 13.6875 C-2.86625 13.93886719 -3.7325 14.19023437 -4.625 14.44921875 C-7 15 -7 15 -10 15 C-10.99 13.02 -11.98 11.04 -13 9 C-11.20966193 7.68568828 -9.41768797 6.3736047 -7.625 5.0625 C-6.62726563 4.33160156 -5.62953125 3.60070312 -4.6015625 2.84765625 C-2 1 -2 1 0 0 Z " fill="#CEA14D" transform="translate(386,332)"/>
<path d="M0 0 C4.42323682 0.58265272 7.5155864 2.26766211 11.3125 4.5625 C12.38113281 5.20316406 13.44976562 5.84382813 14.55078125 6.50390625 C15.35902344 6.99761719 16.16726562 7.49132812 17 8 C16.67 9.32 16.34 10.64 16 12 C10.87903356 10.46371007 6.94467261 8.4723363 2 6 C-0.64 11.28 -3.28 16.56 -6 22 C-7.32 22 -8.64 22 -10 22 C-7.707015 14.04199322 -4.05100513 7.18082279 0 0 Z " fill="#483614" transform="translate(120,278)"/>
<path d="M0 0 C-1.36620469 6.5826226 -1.36620469 6.5826226 -4.5625 8.6875 C-5.7690625 9.3371875 -5.7690625 9.3371875 -7 10 C-7.87822312 12.08533633 -7.87822312 12.08533633 -8 14 C-4.535 13.505 -4.535 13.505 -1 13 C-1.33 13.66 -1.66 14.32 -2 15 C-1.34 15.66 -0.68 16.32 0 17 C-3.23275701 17.95530645 -6.19675639 18.16460378 -9.5625 18.1875 C-10.51253906 18.20167969 -11.46257812 18.21585938 -12.44140625 18.23046875 C-15 18 -15 18 -18 16 C-17.50583686 11.82812274 -15.32634126 10.12702321 -12.25 7.4375 C-10.95835938 6.29087891 -10.95835938 6.29087891 -9.640625 5.12109375 C-3.26519337 0 -3.26519337 0 0 0 Z " fill="#DABA5C" transform="translate(89,227)"/>
<path d="M0 0 C4.95 0 9.9 0 15 0 C15.33 1.65 15.66 3.3 16 5 C13.9627797 5.98838433 11.92000393 6.96532252 9.875 7.9375 C8.73804688 8.48277344 7.60109375 9.02804688 6.4296875 9.58984375 C3.21813339 10.9103119 0.43290921 11.58784221 -3 12 C-2.38379922 7.68659457 -1.40620186 4.21860559 0 0 Z " fill="#D5AF53" transform="translate(259,168)"/>
<path d="M0 0 C3.7602985 0.58107632 6.53035032 1.65199496 9.8125 3.5625 C10.60269531 4.01753906 11.39289063 4.47257812 12.20703125 4.94140625 C12.79871094 5.29074219 13.39039063 5.64007813 14 6 C14 6.66 14 7.32 14 8 C9.18201244 8.22942798 6.85213172 7.61737724 2 6 C-0.31 11.28 -2.62 16.56 -5 22 C-6.32 21.67 -7.64 21.34 -9 21 C-6.76686274 13.55620912 -3.59727921 6.88023305 0 0 Z " fill="#463513" transform="translate(116,259)"/>
<path d="M0 0 C1.32 0 2.64 0 4 0 C6.17457267 2.87354245 7 4.36436591 7 8 C4.4453125 10.04296875 4.4453125 10.04296875 1.125 12.1875 C0.03445313 12.90292969 -1.05609375 13.61835938 -2.1796875 14.35546875 C-5 16 -5 16 -7 16 C-6.61126582 9.78025308 -4.49396455 4.49396455 0 0 Z " fill="#C8A051" transform="translate(341,264)"/>
<path d="M0 0 C1.12758089 3.38274266 0.81750262 4.76778223 0.0625 8.1875 C-0.13214844 9.08855469 -0.32679688 9.98960938 -0.52734375 10.91796875 C-0.68332031 11.60503906 -0.83929688 12.29210937 -1 13 C-4.37462715 12.45276317 -6.08235 11.9451 -9 10 C-7.61811547 6.78956118 -6.07578097 4.95063635 -3.375 2.75 C-2.74335938 2.22921875 -2.11171875 1.7084375 -1.4609375 1.171875 C-0.73777344 0.59179688 -0.73777344 0.59179688 0 0 Z " fill="#DFC060" transform="translate(349,76)"/>
<path d="M0 0 C2.00293347 3.00440021 2.49271626 4.70993945 3.125 8.1875 C3.29257813 9.08855469 3.46015625 9.98960937 3.6328125 10.91796875 C3.75398437 11.60503906 3.87515625 12.29210937 4 13 C-2.75 13.125 -2.75 13.125 -5 12 C-3.85814266 7.52040582 -2.56984833 3.85477249 0 0 Z " fill="#D7B75A" transform="translate(171,342)"/>
<path d="M0 0 C5.94 0 11.88 0 18 0 C18 2.97 18 5.94 18 9 C17.67 9 17.34 9 17 9 C17 6.69 17 4.38 17 2 C12.05 2.33 7.1 2.66 2 3 C1.67 8.28 1.34 13.56 1 19 C1.66 19.33 2.32 19.66 3 20 C2.01 20 1.02 20 0 20 C0 13.4 0 6.8 0 0 Z " fill="#D4A64D" transform="translate(184,335)"/>
<path d="M0 0 C8.75 2.875 8.75 2.875 11 4 C9.48601545 7.78496138 8.9855604 8.0072198 5 10 C3.35 6.7 1.7 3.4 0 0 Z " fill="#DEC164" transform="translate(109,117)"/>
<path d="M0 0 C6.93 0 13.86 0 21 0 C19 2 19 2 16.3984375 2.1953125 C15.40070313 2.17210937 14.40296875 2.14890625 13.375 2.125 C11.87066406 2.09792969 11.87066406 2.09792969 10.3359375 2.0703125 C9.56507812 2.04710937 8.79421875 2.02390625 8 2 C8.33 2.99 8.66 3.98 9 5 C4.89198233 3.81323934 3.10551666 3.10551666 0 0 Z " fill="#D6B75B" transform="translate(77,179)"/>
<path d="M0 0 C1.28132812 0.00902344 2.56265625 0.01804688 3.8828125 0.02734375 C4.87023437 0.03894531 5.85765625 0.05054688 6.875 0.0625 C7.875 3.0625 7.875 3.0625 6.9375 5.25 C6.586875 5.848125 6.23625 6.44625 5.875 7.0625 C5.545 6.0725 5.215 5.0825 4.875 4.0625 C5.205 3.4025 5.535 2.7425 5.875 2.0625 C0.925 2.7225 -4.025 3.3825 -9.125 4.0625 C-9.125 3.0725 -9.125 2.0825 -9.125 1.0625 C-6.12186252 -0.43906874 -3.33432478 -0.03031204 0 0 Z " fill="#DBC36D" transform="translate(127.125,213.9375)"/>
<path d="M0 0 C0.33 0 0.66 0 1 0 C1 5.94 1 11.88 1 18 C-2.96 18 -6.92 18 -11 18 C-7 16 -7 16 -2 16 C-1.34 10.72 -0.68 5.44 0 0 Z " fill="#D6A64D" transform="translate(253,340)"/>
<path d="M0 0 C5.28 0 10.56 0 16 0 C16.33 0.66 16.66 1.32 17 2 C15.02 2 13.04 2 11 2 C10.67 2.99 10.34 3.98 10 5 C8.51800098 4.55090939 7.03944764 4.09043436 5.5625 3.625 C4.73878906 3.36976563 3.91507812 3.11453125 3.06640625 2.8515625 C1 2 1 2 0 0 Z " fill="#D2AA55" transform="translate(266,215)"/>
<path d="M0 0 C1.41687119 4.25061356 0.19320039 6.71851625 -1 11 C-1.66 9.68 -2.32 8.36 -3 7 C-3.99 7.495 -3.99 7.495 -5 8 C-3.62845496 5.04590299 -2.01136276 2.55991624 0 0 Z M-6 8 C-6 11 -6 11 -8.5 13.6875 C-9.325 14.450625 -10.15 15.21375 -11 16 C-9.62845496 13.04590299 -8.01136276 10.55991624 -6 8 Z " fill="#DFBF63" transform="translate(302,60)"/>
<path d="M0 0 C-0.39595843 1.48484412 -0.81750706 2.9628831 -1.25 4.4375 C-1.48203125 5.26121094 -1.7140625 6.08492188 -1.953125 6.93359375 C-3 9 -3 9 -5.109375 9.78515625 C-5.73328125 9.85605469 -6.3571875 9.92695313 -7 10 C-6.67506385 6.4257023 -6.36129314 4.44287547 -4.0625 1.625 C-2 0 -2 0 0 0 Z " fill="#402D10" transform="translate(142,269)"/>
<path d="M0 0 C0 1.32 0 2.64 0 4 C-4.455 5.485 -4.455 5.485 -9 7 C-9 5.35 -9 3.7 -9 2 C-2.25 0 -2.25 0 0 0 Z " fill="#CDB565" transform="translate(118,215)"/>
<path d="M0 0 C1.32 0 2.64 0 4 0 C3.4359146 3.94859783 2.2568294 6.70879046 0 10 C-0.33 10 -0.66 10 -1 10 C-1.125 3.375 -1.125 3.375 0 0 Z " fill="#CDAC73" transform="translate(400,327)"/>
<path d="M0 0 C0.99 0.66 1.98 1.32 3 2 C3 2.99 3 3.98 3 5 C-0.3 5.66 -3.6 6.32 -7 7 C-4.78071806 4.09197539 -3.07030857 2.04687238 0 0 Z " fill="#B99C5D" transform="translate(369,344)"/>
<path d="M0 0 C4 4 4 4 4 6 C3.34 6 2.68 6 2 6 C1.67 9.3 1.34 12.6 1 16 C0.67 16 0.34 16 0 16 C0 10.72 0 5.44 0 0 Z " fill="#B39350" transform="translate(301,292)"/>
<path d="M0 0 C5.94 0 11.88 0 18 0 C18 0.33 18 0.66 18 1 C13.05 1.33 8.1 1.66 3 2 C2.34 3.98 1.68 5.96 1 8 C0.67 8 0.34 8 0 8 C0 5.36 0 2.72 0 0 Z " fill="#D7AB4F" transform="translate(261,336)"/>
<path d="M0 0 C3.55780196 0.60990891 6.6828589 1.5783681 10 3 C10 3.33 10 3.66 10 4 C8.35 4 6.7 4 5 4 C4.67 4.99 4.34 5.98 4 7 C2.10786631 4.61426621 0.97608217 2.92824652 0 0 Z " fill="#DBC164" transform="translate(146,89)"/>
<path d="M0 0 C1.98 0.66 3.96 1.32 6 2 C6.33 1.34 6.66 0.68 7 0 C8.32 1.98 9.64 3.96 11 6 C6.61110675 5.33501617 3.0188515 3.81242323 -1 2 C-0.67 1.34 -0.34 0.68 0 0 Z " fill="#D9BF61" transform="translate(153,78)"/>
<path d="M0 0 C3.63 0 7.26 0 11 0 C11 0.33 11 0.66 11 1 C8.94921875 1.22786458 6.8984375 1.45572917 4.84765625 1.68359375 C2.98859771 1.81886614 2.98859771 1.81886614 2 3 C1.76712992 4.68183948 1.58735834 6.3712416 1.4375 8.0625 C1.35371094 8.98160156 1.26992187 9.90070313 1.18359375 10.84765625 C1.12300781 11.55792969 1.06242188 12.26820313 1 13 C0.67 13 0.34 13 0 13 C0 8.71 0 4.42 0 0 Z " fill="#D6A94F" transform="translate(234,336)"/>
<path d="M0 0 C0.93065133 2.60582371 1.14917407 3.64198224 0.0625 6.25 C-0.4634375 7.11625 -0.4634375 7.11625 -1 8 C-1.99 8 -2.98 8 -4 8 C-4.25 5.6875 -4.25 5.6875 -4 3 C-2 1.1875 -2 1.1875 0 0 Z " fill="#3C2E11" transform="translate(122,315)"/>
<path d="M0 0 C0.66 0.33 1.32 0.66 2 1 C2.625 4.0625 2.625 4.0625 3 7 C1.35 7.66 -0.3 8.32 -2 9 C-2.33 8.34 -2.66 7.68 -3 7 C-2.06421005 4.64018187 -1.06652192 2.30368736 0 0 Z " fill="#DABB62" transform="translate(159,302)"/>
<path d="M0 0 C0.33 0 0.66 0 1 0 C0.67 4.29 0.34 8.58 0 13 C-2.45811625 9.31282562 -2.31118164 7.35654296 -2 3 C-1.34 2.01 -0.68 1.02 0 0 Z " fill="#C1A25A" transform="translate(316,305)"/>
<path d="M0 0 C0 3 0 3 -1.609375 5.0078125 C-2.66898437 6.05582031 -2.66898437 6.05582031 -3.75 7.125 C-4.44609375 7.82882813 -5.1421875 8.53265625 -5.859375 9.2578125 C-7.99788242 10.99827657 -9.30910227 11.60000169 -12 12 C-8 8 -4 4 0 0 Z " fill="#DAB851" transform="translate(407,126)"/>
<path d="M0 0 C2 3 2 3 2 7 C2.66 7 3.32 7 4 7 C4.33 6.34 4.66 5.68 5 5 C4.74438677 7.3431213 4.40729228 9.67843403 4 12 C3.01 12.495 3.01 12.495 2 13 C-0.28571429 4.57142857 -0.28571429 4.57142857 0 0 Z " fill="#DDC269" transform="translate(322,270)"/>
<path d="M0 0 C0 0.99 0 1.98 0 3 C-3.63 3 -7.26 3 -11 3 C-11 2.34 -11 1.68 -11 1 C-3.375 0 -3.375 0 0 0 Z " fill="#C6A954" transform="translate(85,242)"/>
<path d="M0 0 C0.66 0.33 1.32 0.66 2 1 C2.625 3.0625 2.625 3.0625 3 5 C2.01 5 1.02 5 0 5 C-0.33 7.97 -0.66 10.94 -1 14 C-1.33 14 -1.66 14 -2 14 C-2.21192221 8.80790596 -1.5912689 4.873261 0 0 Z " fill="#DDC160" transform="translate(276,56)"/>
<path d="M0 0 C0.66 0.66 1.32 1.32 2 2 C0.87926138 2.83905565 -0.24674547 3.67107831 -1.375 4.5 C-2.00148438 4.9640625 -2.62796875 5.428125 -3.2734375 5.90625 C-5 7 -5 7 -7 7 C-7.66 5.35 -8.32 3.7 -9 2 C-8.2575 2.226875 -7.515 2.45375 -6.75 2.6875 C-3.94085007 3.29476698 -3.94085007 3.29476698 -1.6875 1.5625 C-1.130625 1.046875 -0.57375 0.53125 0 0 Z " fill="#CDA451" transform="translate(389,269)"/>
<path d="M0 0 C-4.22949995 2.41685712 -7.12335991 3.34833144 -12 3 C-12.33 2.34 -12.66 1.68 -13 1 C-11.20994059 0.63779734 -9.41787943 0.28547531 -7.625 -0.0625 C-6.12839844 -0.35833984 -6.12839844 -0.35833984 -4.6015625 -0.66015625 C-2 -1 -2 -1 0 0 Z " fill="#E6C667" transform="translate(426,171)"/>
<path d="M0 0 C3.65316671 1.24976756 4.78065836 1.67098753 7 5 C5.68 4.67 4.36 4.34 3 4 C2.67 5.32 2.34 6.64 2 8 C1.34 5.36 0.68 2.72 0 0 Z " fill="#DEC367" transform="translate(89,301)"/>
<path d="M0 0 C1.98 0.66 3.96 1.32 6 2 C6.33 3.65 6.66 5.3 7 7 C6.01 7.495 6.01 7.495 5 8 C4.16382818 6.8562364 3.33113541 5.70992861 2.5 4.5625 C2.0359375 3.92441406 1.571875 3.28632813 1.09375 2.62890625 C0 1 0 1 0 0 Z " fill="#DEC366" transform="translate(85,157)"/>
<path d="M0 0 C0.33 0 0.66 0 1 0 C0.25 6.75 0.25 6.75 -2 9 C-2.33 6.69 -2.66 4.38 -3 2 C-2.01 2.33 -1.02 2.66 0 3 C0 2.01 0 1.02 0 0 Z " fill="#D8BD66" transform="translate(157,251)"/>
<path d="M0 0 C0.33 0 0.66 0 1 0 C1 1.98 1 3.96 1 6 C2.32 6.33 3.64 6.66 5 7 C5 7.66 5 8.32 5 9 C2.5625 8.3125 2.5625 8.3125 0 7 C-0.875 4.5 -0.875 4.5 -1 2 C-0.67 1.34 -0.34 0.68 0 0 Z " fill="#554723" transform="translate(56,174)"/>
<path d="M0 0 C0.33 0.99 0.66 1.98 1 3 C0.319375 3.61875 0.319375 3.61875 -0.375 4.25 C-2.05950374 6.06408095 -2.99265971 7.75285627 -4 10 C-4.33 9.01 -4.66 8.02 -5 7 C-3.58511552 4.23760649 -2.19636905 2.19636905 0 0 Z " fill="#DAB851" transform="translate(410,150)"/>
<path d="M0 0 C0.66 0.33 1.32 0.66 2 1 C2.40729228 3.32156597 2.74438677 5.6568787 3 8 C1.68 7.67 0.36 7.34 -1 7 C-0.67 4.69 -0.34 2.38 0 0 Z " fill="#D5BA60" transform="translate(105,407)"/>
<path d="M0 0 C3.96 1.98 3.96 1.98 8 4 C4.79937313 5.60031344 2.27728194 4.03173691 -1 3 C-0.67 2.01 -0.34 1.02 0 0 Z " fill="#BBAC6A" transform="translate(139,347)"/>
<path d="M0 0 C0.99 0.33 1.98 0.66 3 1 C1.38405168 3.04119788 -0.2856382 5.04072937 -2 7 C-2.66 7 -3.32 7 -4 7 C-3.43628586 3.73045798 -2.50037734 2.17424117 0 0 Z " fill="#E6C560" transform="translate(75,236)"/>
<path d="M0 0 C1.65 0 3.3 0 5 0 C4.2884375 0.495 4.2884375 0.495 3.5625 1 C1.14208385 4.09813267 1.31801083 7.12026792 1 11 C0.67 11 0.34 11 0 11 C0 7.37 0 3.74 0 0 Z " fill="#CC9A44" transform="translate(316,432)"/>
<path d="M0 0 C0.66 0 1.32 0 2 0 C1.67 1.98 1.34 3.96 1 6 C-0.32 6 -1.64 6 -3 6 C-3 5.34 -3 4.68 -3 4 C-2.34 4 -1.68 4 -1 4 C-0.67 2.68 -0.34 1.36 0 0 Z " fill="#DBB57A" transform="translate(404,321)"/>
<path d="M0 0 C2.4294516 3.6441774 2.16179575 5.71241272 2 10 C1.01 9.34 0.02 8.68 -1 8 C-0.67 5.36 -0.34 2.72 0 0 Z " fill="#D5B757" transform="translate(415,315)"/>
<path d="M0 0 C0.33 0.99 0.66 1.98 1 3 C1.66 3 2.32 3 3 3 C3 3.66 3 4.32 3 5 C1.02 5.99 -0.96 6.98 -3 8 C-1.125 2.25 -1.125 2.25 0 0 Z " fill="#56421C" transform="translate(143,257)"/>
<path d="M0 0 C2.64 0 5.28 0 8 0 C7.67 0.99 7.34 1.98 7 3 C4.0625 2.625 4.0625 2.625 1 2 C0.67 1.34 0.34 0.68 0 0 Z " fill="#C8A75D" transform="translate(266,215)"/>
</svg>
